<svg xmlns="http://www.w3.org/2000/svg" viewBox="-164 -1664 2224 2578">
  <rect x="-164" y="-1664" width="2224" height="2578" fill="#ffffff"/>
  <path d="M1467 23Q1427 23 1400.0 6.5Q1373 -10 1373 -49Q1373 -90 1401.0 -103.5Q1429 -117 1469 -117Q1543 -117 1600.0 -172.0Q1657 -227 1657 -304Q1657 -403 1588.0 -453.0Q1519 -503 1417 -509Q1417 -367 1368.5 -245.5Q1320 -124 1224.0 -50.0Q1128 24 986 24Q885 24 805.0 -24.0Q725 -72 679 -130Q641 -69 573.0 -25.0Q505 19 411 19Q329 19 258.0 -21.0Q187 -61 143.5 -128.0Q100 -195 100 -275Q100 -405 164.0 -485.5Q228 -566 336.5 -605.0Q445 -644 578 -647Q600 -744 652.5 -830.0Q705 -916 789.0 -969.5Q873 -1023 989 -1023Q1105 -1023 1188.5 -970.0Q1272 -917 1325.0 -832.0Q1378 -747 1400 -650Q1507 -648 1597.0 -608.0Q1687 -568 1741.5 -491.5Q1796 -415 1796 -305Q1796 -217 1751.5 -142.5Q1707 -68 1632.5 -22.5Q1558 23 1467 23ZM723 -649H1255Q1227 -739 1161.5 -811.5Q1096 -884 989 -884Q918 -884 864.5 -850.0Q811 -816 776.0 -762.5Q741 -709 723 -649ZM1277 -509H702Q702 -411 732.5 -320.0Q763 -229 826.5 -171.5Q890 -114 988 -114Q1087 -114 1151.0 -170.5Q1215 -227 1246.0 -317.5Q1277 -408 1277 -509ZM240 -288Q240 -220 289.0 -171.0Q338 -122 405 -122Q485 -122 535.5 -172.0Q586 -222 586 -309Q562 -397 562 -506Q474 -503 401.0 -478.5Q328 -454 284.0 -407.0Q240 -360 240 -288Z" fill="#e5e0d8" stroke="none"/>
  <path d="M 659.9 -611.7 L 670.8 -660.0 L 686.5 -706.7 L 709.9 -751.0 L 733.7 -794.0 L 764.5 -830.7 L 800.6 -862.5 L 840.0 -887.7 L 879.9 -906.5 L 922.3 -924.5 L 965.7 -933.9 L 1010.4 -933.6 L 1052.6 -925.1 L 1094.6 -910.9 L 1133.0 -891.9 L 1176.3 -873.3 L 1214.9 -847.0 L 1243.7 -809.4 L 1279.3 -776.1 L 1293.9 -727.9 L 1307.5 -682.9 L 1317.9 -635.1 L 1323.2 -586.6 L 1327.0 -538.0 L 1324.1 -488.6 L 1321.3 -439.3 L 1312.1 -392.1 L 1301.4 -342.7 L 1287.6 -295.2 L 1274.1 -248.1 L 1252.2 -204.5 L 1225.4 -164.1 L 1191.2 -130.9 L 1157.0 -98.3 L 1118.6 -71.1 L 1076.8 -50.9 L 1031.4 -48.8 L 987.5 -60.0 L 942.7 -65.0 L 902.0 -82.7 L 859.2 -103.8 L 816.8 -129.9 L 782.3 -166.8 L 746.0 -203.5 L 714.3 -244.5 L 687.6 -284.6 L 666.5 -327.7 L 654.1 -372.0 L 652.0 -418.2 L 656.4 -465.3 L 658.5 -511.6 L 657.8 -557.3 L 662.3 -607.2 L 653.7 -561.4 L 652.3 -514.9 L 649.3 -468.3 L 643.5 -421.4 L 644.5 -375.0 L 648.5 -329.0 L 651.4 -282.0 L 643.2 -236.5 L 616.6 -192.5 L 585.0 -151.9 L 553.8 -112.7 L 515.6 -83.7 L 473.5 -65.5 L 429.1 -61.5 L 385.6 -67.2 L 343.5 -80.6 L 307.7 -107.2 L 271.8 -135.6 L 234.3 -159.8 L 203.3 -195.9 L 182.1 -238.2 L 179.9 -286.5 L 178.0 -334.8 L 195.2 -377.4 L 227.5 -413.5 L 261.9 -446.6 L 300.9 -473.4 L 343.8 -490.9 L 386.0 -511.3 L 431.3 -521.8 L 478.3 -520.4 L 526.5 -525.5 L 576.5 -524.6 L 628.0 -525.1 L 678.6 -529.2 L 730.7 -525.8 L 782.5 -533.8 L 833.2 -538.6 L 877.9 -532.9 L 922.6 -534.9 L 966.6 -543.4 L 1010.3 -553.3 L 1054.9 -552.4 L 1098.4 -550.8 L 1142.5 -558.8 L 1193.5 -562.6 L 1245.5 -558.5 L 1298.4 -550.6 L 1353.0 -552.9 L 1407.9 -549.9 L 1462.6 -549.7 L 1516.9 -540.9 L 1569.1 -523.5 L 1616.7 -499.4 L 1658.1 -465.9 L 1691.8 -426.8 L 1709.6 -378.4 L 1722.6 -328.2 L 1721.8 -277.1 L 1709.0 -227.5 L 1685.5 -181.3 L 1656.4 -138.3 L 1623.2 -99.6 L 1585.1 -69.4 L 1537.6 -51.5 L 1488.4 -38.3 L 1443.9 -36.0" fill="none" stroke="#c0392b" stroke-width="26" stroke-linecap="round" stroke-linejoin="round"/>
</svg>
