<svg xmlns="http://www.w3.org/2000/svg" viewBox="-164 -1664 2224 2578">
  <rect x="-164" y="-1664" width="2224" height="2578" fill="#ffffff"/>
  <path d="M1467 23Q1427 23 1400.0 6.5Q1373 -10 1373 -49Q1373 -90 1401.0 -103.5Q1429 -117 1469 -117Q1543 -117 1600.0 -172.0Q1657 -227 1657 -304Q1657 -403 1588.0 -453.0Q1519 -503 1417 -509Q1417 -367 1368.5 -245.5Q1320 -124 1224.0 -50.0Q1128 24 986 24Q885 24 805.0 -24.0Q725 -72 679 -130Q641 -69 573.0 -25.0Q505 19 411 19Q329 19 258.0 -21.0Q187 -61 143.5 -128.0Q100 -195 100 -275Q100 -405 164.0 -485.5Q228 -566 336.5 -605.0Q445 -644 578 -647Q600 -744 652.5 -830.0Q705 -916 789.0 -969.5Q873 -1023 989 -1023Q1105 -1023 1188.5 -970.0Q1272 -917 1325.0 -832.0Q1378 -747 1400 -650Q1507 -648 1597.0 -608.0Q1687 -568 1741.5 -491.5Q1796 -415 1796 -305Q1796 -217 1751.5 -142.5Q1707 -68 1632.5 -22.5Q1558 23 1467 23ZM723 -649H1255Q1227 -739 1161.5 -811.5Q1096 -884 989 -884Q918 -884 864.5 -850.0Q811 -816 776.0 -762.5Q741 -709 723 -649ZM1277 -509H702Q702 -411 732.5 -320.0Q763 -229 826.5 -171.5Q890 -114 988 -114Q1087 -114 1151.0 -170.5Q1215 -227 1246.0 -317.5Q1277 -408 1277 -509ZM240 -288Q240 -220 289.0 -171.0Q338 -122 405 -122Q485 -122 535.5 -172.0Q586 -222 586 -309Q562 -397 562 -506Q474 -503 401.0 -478.5Q328 -454 284.0 -407.0Q240 -360 240 -288Z" fill="#e5e0d8" stroke="none"/>
  <path d="M 648 -614 C 649 -617 648 -615 649 -621 C 651 -628 651 -623 652 -630 C 653 -637 651 -632 652 -639 C 652 -646 652 -641 653 -647 C 654 -653 652 -649 654 -655 C 655 -661 654 -657 656 -663 C 658 -669 657 -664 658 -669 C 659 -675 658 -672 658 -677 C 658 -683 658 -678 658 -683 C 659 -689 658 -685 659 -691 C 661 -697 658 -691 662 -699 C 665 -706 664 -700 668 -709 C 672 -718 670 -714 672 -721 C 675 -728 672 -721 675 -727 C 678 -733 676 -731 680 -737 C 683 -743 681 -738 683 -742 C 685 -746 683 -742 685 -748 C 688 -754 687 -751 690 -757 C 693 -763 690 -758 693 -762 C 696 -767 694 -762 697 -768 C 700 -774 698 -771 701 -777 C 704 -783 701 -777 704 -782 C 708 -787 707 -782 711 -790 C 715 -798 710 -794 715 -802 C 719 -811 717 -805 721 -811 C 726 -818 723 -813 727 -819 C 731 -825 727 -821 731 -826 C 736 -831 732 -826 738 -831 C 743 -836 739 -832 746 -838 C 752 -844 748 -840 754 -846 C 760 -851 754 -846 761 -851 C 767 -857 761 -853 770 -860 C 778 -867 773 -863 781 -869 C 789 -875 783 -871 789 -875 C 794 -878 789 -875 794 -878 C 799 -882 795 -879 801 -884 C 808 -889 804 -887 810 -891 C 816 -894 811 -891 816 -893 C 821 -895 818 -893 823 -896 C 828 -899 824 -897 828 -901 C 833 -905 829 -902 834 -906 C 838 -911 835 -909 840 -911 C 845 -913 840 -912 846 -912 C 853 -913 849 -911 855 -912 C 861 -913 857 -913 861 -914 C 866 -916 862 -915 867 -917 C 871 -918 867 -917 872 -919 C 877 -921 873 -920 879 -922 C 885 -925 880 -922 887 -924 C 894 -927 890 -925 896 -928 C 902 -931 896 -928 903 -931 C 909 -934 905 -934 913 -936 C 920 -938 916 -935 922 -936 C 928 -937 923 -937 929 -938 C 935 -939 931 -939 937 -939 C 942 -940 937 -938 943 -939 C 949 -940 945 -939 952 -941 C 960 -944 955 -943 962 -946 C 970 -949 964 -948 971 -949 C 979 -950 974 -949 980 -949 C 987 -949 980 -950 987 -949 C 994 -949 990 -949 997 -948 C 1005 -947 1000 -947 1006 -946 C 1013 -946 1008 -946 1013 -946 C 1018 -946 1014 -946 1019 -946 C 1024 -946 1021 -946 1027 -946 C 1032 -947 1026 -948 1033 -948 C 1039 -947 1035 -948 1043 -945 C 1052 -942 1046 -942 1053 -939 C 1059 -936 1055 -939 1060 -937 C 1065 -935 1059 -938 1065 -935 C 1072 -931 1067 -932 1077 -928 C 1086 -924 1081 -926 1090 -924 C 1098 -922 1092 -924 1097 -924 C 1102 -924 1097 -925 1103 -923 C 1109 -921 1106 -921 1113 -919 C 1120 -917 1113 -919 1121 -918 C 1128 -918 1124 -921 1131 -918 C 1139 -915 1133 -917 1140 -911 C 1146 -905 1140 -907 1147 -902 C 1154 -897 1149 -901 1157 -898 C 1164 -894 1159 -897 1166 -894 C 1173 -892 1169 -894 1175 -891 C 1181 -889 1176 -891 1180 -888 C 1185 -886 1181 -888 1188 -885 C 1194 -881 1189 -884 1197 -880 C 1205 -876 1199 -879 1208 -875 C 1216 -871 1212 -874 1218 -869 C 1224 -865 1217 -869 1222 -865 C 1227 -860 1225 -863 1230 -858 C 1235 -853 1230 -858 1235 -853 C 1240 -848 1237 -852 1243 -846 C 1248 -840 1245 -843 1248 -838 C 1251 -832 1247 -838 1250 -832 C 1254 -826 1252 -829 1256 -823 C 1260 -818 1257 -822 1261 -819 C 1264 -815 1261 -818 1265 -814 C 1269 -811 1267 -813 1271 -810 C 1276 -806 1272 -809 1277 -805 C 1282 -800 1280 -804 1285 -799 C 1289 -795 1285 -798 1288 -794 C 1291 -790 1288 -794 1293 -789 C 1297 -784 1295 -789 1300 -781 C 1304 -773 1301 -776 1304 -770 C 1307 -763 1305 -771 1307 -764 C 1310 -757 1308 -762 1310 -753 C 1312 -745 1310 -752 1312 -743 C 1314 -735 1312 -739 1314 -732 C 1316 -725 1315 -731 1318 -726 C 1320 -721 1318 -725 1321 -719 C 1324 -713 1323 -718 1324 -711 C 1326 -705 1325 -710 1325 -702 C 1326 -694 1326 -699 1327 -692 C 1327 -686 1326 -691 1327 -686 C 1327 -680 1327 -685 1329 -679 C 1331 -673 1330 -677 1332 -671 C 1334 -665 1333 -670 1334 -663 C 1335 -656 1334 -661 1335 -654 C 1336 -647 1335 -651 1336 -645 C 1336 -639 1335 -644 1337 -639 C 1339 -634 1338 -638 1340 -633 C 1342 -628 1341 -632 1342 -626 C 1344 -620 1343 -625 1343 -618 C 1344 -612 1343 -616 1343 -610 C 1343 -604 1343 -610 1343 -603 C 1343 -597 1343 -602 1343 -593 C 1343 -584 1343 -589 1343 -581 C 1343 -573 1343 -579 1343 -574 C 1343 -568 1342 -574 1343 -567 C 1345 -559 1346 -562 1347 -555 C 1348 -548 1347 -555 1347 -549 C 1347 -543 1347 -546 1347 -540 C 1347 -533 1347 -538 1347 -532 C 1347 -527 1347 -531 1347 -526 C 1347 -521 1347 -525 1347 -520 C 1347 -515 1348 -519 1347 -513 C 1346 -507 1346 -512 1345 -505 C 1343 -498 1344 -503 1344 -496 C 1344 -490 1344 -495 1344 -489 C 1344 -482 1344 -487 1344 -480 C 1344 -473 1344 -479 1344 -472 C 1344 -465 1344 -471 1344 -463 C 1344 -456 1344 -461 1343 -454 C 1343 -447 1343 -453 1342 -446 C 1341 -439 1342 -443 1341 -437 C 1341 -430 1341 -436 1341 -430 C 1340 -424 1341 -429 1340 -422 C 1338 -415 1338 -420 1337 -413 C 1336 -406 1337 -412 1337 -405 C 1336 -398 1337 -402 1336 -396 C 1334 -389 1336 -395 1333 -388 C 1331 -382 1332 -386 1330 -379 C 1328 -373 1329 -378 1328 -372 C 1327 -367 1328 -371 1327 -366 C 1326 -361 1327 -365 1327 -360 C 1326 -355 1327 -358 1326 -353 C 1325 -347 1326 -351 1325 -346 C 1324 -341 1325 -345 1323 -340 C 1321 -334 1322 -338 1320 -332 C 1318 -327 1319 -331 1317 -325 C 1315 -319 1317 -324 1315 -318 C 1314 -312 1315 -317 1314 -310 C 1312 -304 1313 -308 1312 -301 C 1310 -294 1311 -299 1309 -292 C 1308 -286 1309 -290 1307 -284 C 1306 -278 1307 -284 1306 -277 C 1304 -271 1306 -276 1304 -268 C 1302 -261 1303 -265 1300 -258 C 1297 -251 1300 -258 1297 -251 C 1295 -243 1297 -248 1293 -240 C 1290 -232 1293 -237 1289 -231 C 1285 -225 1288 -230 1284 -224 C 1281 -218 1283 -222 1280 -216 C 1278 -210 1281 -216 1278 -209 C 1275 -203 1277 -207 1273 -200 C 1269 -194 1272 -200 1268 -194 C 1264 -188 1267 -192 1263 -186 C 1259 -179 1262 -184 1257 -178 C 1253 -171 1257 -176 1252 -170 C 1248 -163 1251 -168 1247 -161 C 1242 -154 1245 -158 1241 -153 C 1237 -147 1240 -151 1237 -146 C 1233 -142 1236 -145 1231 -141 C 1227 -137 1230 -141 1225 -136 C 1219 -132 1224 -135 1218 -131 C 1212 -126 1216 -129 1210 -124 C 1204 -119 1208 -124 1202 -118 C 1196 -113 1200 -116 1195 -110 C 1189 -104 1194 -108 1189 -104 C 1184 -99 1188 -103 1182 -98 C 1177 -94 1181 -98 1175 -92 C 1169 -86 1174 -90 1168 -84 C 1161 -78 1165 -82 1159 -77 C 1153 -72 1158 -76 1152 -72 C 1147 -68 1151 -71 1145 -68 C 1138 -64 1143 -67 1136 -63 C 1129 -59 1134 -62 1127 -58 C 1120 -55 1126 -58 1119 -54 C 1111 -51 1116 -53 1109 -49 C 1102 -46 1107 -48 1100 -45 C 1093 -42 1098 -44 1092 -42 C 1086 -39 1091 -41 1086 -39 C 1080 -38 1085 -39 1079 -38 C 1073 -37 1077 -38 1071 -37 C 1064 -37 1069 -38 1062 -37 C 1055 -36 1060 -36 1053 -35 C 1047 -34 1052 -34 1045 -35 C 1039 -35 1043 -36 1036 -36 C 1030 -37 1035 -36 1029 -36 C 1023 -37 1027 -36 1021 -37 C 1016 -38 1020 -37 1015 -38 C 1010 -39 1014 -38 1009 -39 C 1003 -41 1007 -40 1002 -42 C 997 -44 1001 -42 996 -44 C 990 -47 995 -46 988 -47 C 982 -48 986 -46 980 -47 C 973 -48 978 -49 972 -50 C 966 -50 971 -49 965 -50 C 960 -50 964 -50 958 -51 C 953 -52 957 -51 952 -52 C 946 -52 952 -51 945 -52 C 938 -52 941 -52 934 -53 C 927 -55 933 -54 929 -56 C 924 -59 928 -58 923 -60 C 918 -63 922 -61 917 -63 C 912 -65 916 -64 911 -65 C 905 -66 909 -64 904 -65 C 899 -66 904 -65 898 -68 C 893 -70 898 -67 891 -72 C 883 -76 886 -75 880 -79 C 873 -82 879 -79 874 -81 C 869 -82 872 -82 867 -83 C 862 -85 866 -83 861 -85 C 856 -87 860 -86 854 -89 C 849 -92 853 -89 848 -92 C 843 -95 847 -93 841 -96 C 836 -99 840 -97 834 -100 C 829 -103 833 -101 829 -104 C 824 -108 828 -105 823 -108 C 817 -111 821 -110 816 -112 C 811 -115 815 -112 810 -115 C 806 -117 809 -115 805 -118 C 801 -121 804 -119 800 -123 C 797 -126 799 -123 796 -127 C 792 -131 795 -127 791 -133 C 787 -139 790 -135 786 -141 C 782 -147 785 -143 781 -148 C 777 -152 780 -149 776 -152 C 772 -156 776 -151 770 -156 C 765 -160 768 -158 762 -164 C 757 -170 762 -166 757 -171 C 753 -175 758 -170 752 -175 C 746 -180 749 -177 743 -183 C 737 -189 741 -185 737 -191 C 733 -196 736 -192 733 -196 C 730 -201 733 -198 730 -202 C 727 -207 730 -201 726 -208 C 721 -214 724 -212 719 -218 C 713 -224 717 -219 713 -223 C 709 -228 713 -222 709 -229 C 705 -236 706 -234 702 -240 C 698 -247 702 -241 699 -246 C 695 -251 698 -247 694 -253 C 690 -258 693 -254 689 -260 C 686 -266 688 -261 686 -268 C 683 -275 686 -270 682 -276 C 679 -282 681 -277 678 -282 C 675 -287 678 -282 675 -288 C 672 -294 673 -289 670 -297 C 667 -304 669 -299 667 -307 C 665 -315 667 -309 665 -316 C 663 -323 665 -318 662 -324 C 659 -330 661 -323 658 -331 C 655 -338 657 -334 655 -342 C 653 -350 655 -343 653 -351 C 652 -358 652 -351 651 -360 C 650 -369 652 -364 651 -372 C 650 -381 650 -375 649 -381 C 648 -388 649 -383 648 -388 C 648 -394 648 -388 648 -395 C 648 -402 648 -398 648 -405 C 648 -412 648 -407 648 -412 C 647 -417 648 -411 648 -418 C 648 -425 648 -420 648 -429 C 648 -438 648 -433 648 -440 C 648 -447 647 -442 648 -447 C 648 -452 648 -447 649 -453 C 650 -460 649 -455 650 -463 C 650 -470 649 -465 650 -472 C 650 -480 651 -474 651 -481 C 651 -489 651 -485 651 -492 C 651 -499 651 -492 651 -498 C 651 -504 651 -499 651 -507 C 651 -514 651 -509 650 -516 C 650 -524 650 -518 650 -526 C 650 -535 651 -530 650 -537 C 650 -544 650 -537 648 -545 C 647 -552 647 -549 647 -556 C 647 -564 647 -558 647 -563 C 647 -569 648 -563 648 -570 C 649 -577 648 -573 648 -580 C 648 -587 648 -582 648 -587 C 649 -592 648 -586 649 -593 C 651 -599 651 -595 652 -603 C 652 -611 652 -607 652 -614 C 652 -621 653 -619 652 -620 C 650 -621 650 -622 647 -616 C 645 -610 646 -613 645 -606 C 644 -599 645 -605 645 -599 C 645 -592 645 -597 645 -590 C 645 -582 645 -587 644 -580 C 644 -573 644 -579 644 -572 C 643 -565 644 -570 644 -562 C 644 -554 644 -560 644 -553 C 644 -546 644 -552 644 -545 C 644 -538 644 -543 644 -536 C 644 -528 644 -535 644 -527 C 644 -518 644 -524 644 -515 C 644 -507 644 -513 644 -506 C 643 -498 644 -504 643 -496 C 643 -488 643 -494 643 -486 C 642 -479 643 -485 643 -478 C 643 -471 643 -478 643 -470 C 643 -462 643 -465 643 -458 C 643 -450 643 -457 643 -452 C 643 -446 643 -450 642 -445 C 642 -439 643 -444 642 -437 C 641 -431 641 -436 641 -428 C 640 -420 640 -427 641 -418 C 641 -409 641 -415 642 -406 C 643 -397 643 -403 643 -396 C 644 -388 643 -394 643 -387 C 643 -379 643 -385 643 -377 C 644 -370 643 -376 644 -368 C 645 -360 644 -366 645 -358 C 646 -350 646 -356 646 -349 C 647 -342 647 -347 648 -341 C 648 -335 647 -341 648 -334 C 648 -328 648 -333 650 -325 C 651 -318 650 -324 651 -315 C 652 -306 652 -311 653 -303 C 655 -295 653 -301 654 -295 C 655 -289 655 -295 656 -288 C 657 -280 656 -283 657 -276 C 657 -269 657 -275 658 -270 C 658 -265 658 -270 658 -263 C 658 -256 658 -261 658 -254 C 658 -246 658 -250 657 -244 C 656 -238 657 -246 655 -238 C 653 -231 654 -233 652 -225 C 649 -217 651 -224 649 -219 C 647 -214 649 -219 646 -213 C 644 -208 645 -211 643 -205 C 640 -199 643 -205 640 -198 C 636 -192 639 -197 634 -190 C 629 -183 632 -188 628 -182 C 623 -176 626 -180 622 -175 C 619 -169 622 -174 618 -169 C 614 -163 617 -168 613 -162 C 608 -156 610 -159 606 -153 C 603 -148 606 -152 603 -148 C 600 -143 603 -148 599 -143 C 594 -137 597 -141 592 -134 C 587 -128 590 -131 586 -126 C 582 -121 585 -126 582 -121 C 578 -116 581 -119 577 -114 C 573 -110 576 -114 572 -110 C 568 -105 572 -108 567 -103 C 563 -98 566 -102 560 -97 C 555 -93 559 -95 554 -91 C 548 -86 552 -90 547 -86 C 541 -83 545 -87 540 -82 C 535 -78 540 -80 534 -75 C 528 -71 531 -75 525 -72 C 519 -68 524 -69 518 -66 C 512 -62 517 -65 510 -63 C 504 -60 509 -63 502 -61 C 495 -59 500 -60 493 -57 C 485 -55 491 -57 483 -55 C 474 -53 480 -54 472 -52 C 465 -50 471 -51 464 -50 C 457 -49 462 -50 454 -50 C 447 -49 454 -50 446 -50 C 438 -50 444 -50 435 -50 C 427 -50 432 -49 425 -50 C 418 -50 424 -50 418 -51 C 413 -51 417 -51 412 -51 C 407 -51 412 -51 405 -51 C 398 -51 401 -49 395 -51 C 388 -52 394 -52 389 -54 C 383 -56 388 -55 381 -56 C 373 -58 378 -55 371 -57 C 364 -59 370 -59 364 -61 C 358 -64 362 -61 356 -63 C 350 -65 355 -63 349 -65 C 343 -68 347 -67 341 -69 C 335 -71 339 -69 334 -70 C 328 -72 332 -70 327 -73 C 323 -77 328 -74 322 -79 C 317 -85 321 -82 315 -86 C 308 -91 313 -87 306 -91 C 299 -95 305 -92 298 -96 C 290 -100 295 -96 287 -101 C 280 -106 284 -104 279 -109 C 273 -115 279 -110 274 -114 C 269 -119 273 -114 266 -119 C 259 -124 264 -122 256 -127 C 249 -132 254 -129 246 -133 C 238 -136 243 -133 237 -135 C 231 -137 237 -133 231 -137 C 225 -141 227 -140 222 -145 C 217 -150 223 -145 218 -151 C 213 -156 216 -153 210 -159 C 204 -164 208 -159 203 -164 C 197 -169 201 -165 196 -171 C 191 -177 194 -173 191 -179 C 187 -185 191 -179 187 -186 C 183 -192 184 -189 181 -195 C 178 -201 182 -194 179 -200 C 176 -206 178 -203 174 -209 C 169 -216 171 -212 168 -217 C 165 -223 168 -216 165 -223 C 162 -230 163 -227 161 -235 C 159 -244 161 -238 159 -244 C 158 -251 158 -245 157 -252 C 156 -259 157 -254 157 -262 C 157 -271 157 -265 157 -274 C 158 -282 158 -277 158 -284 C 159 -291 158 -286 158 -292 C 158 -298 158 -292 158 -298 C 158 -305 158 -299 158 -309 C 158 -318 159 -313 158 -321 C 158 -329 159 -321 158 -328 C 157 -334 157 -331 156 -338 C 155 -345 155 -338 156 -345 C 156 -352 154 -347 157 -355 C 159 -363 156 -356 161 -364 C 167 -372 165 -368 169 -374 C 174 -381 170 -375 174 -380 C 177 -385 174 -381 178 -386 C 181 -390 179 -387 183 -391 C 187 -395 183 -392 187 -396 C 191 -400 189 -397 193 -401 C 198 -406 194 -402 198 -407 C 203 -412 199 -408 204 -414 C 209 -420 205 -416 211 -422 C 217 -429 213 -424 220 -430 C 226 -436 222 -431 227 -437 C 232 -442 228 -439 233 -444 C 238 -448 235 -443 239 -448 C 244 -452 240 -450 244 -454 C 249 -459 246 -455 250 -459 C 254 -463 251 -461 255 -465 C 258 -468 255 -465 260 -468 C 264 -471 260 -468 265 -471 C 271 -474 267 -472 273 -476 C 280 -479 276 -477 282 -480 C 287 -484 283 -482 287 -485 C 292 -488 288 -485 293 -488 C 298 -491 293 -490 299 -492 C 304 -495 298 -492 307 -494 C 315 -496 311 -495 319 -497 C 327 -499 320 -496 326 -499 C 332 -502 328 -501 335 -505 C 341 -508 337 -506 343 -508 C 348 -510 344 -508 349 -510 C 355 -511 351 -510 356 -512 C 361 -515 357 -512 363 -515 C 368 -518 364 -517 369 -520 C 375 -524 371 -521 376 -523 C 381 -525 376 -523 382 -526 C 388 -529 385 -528 392 -530 C 399 -531 393 -529 399 -530 C 405 -530 401 -530 407 -531 C 414 -532 408 -532 414 -533 C 420 -535 414 -534 422 -534 C 430 -535 424 -535 433 -534 C 443 -533 438 -533 445 -532 C 453 -531 443 -532 451 -532 C 460 -533 457 -533 466 -533 C 474 -534 467 -533 472 -533 C 478 -533 472 -533 479 -533 C 487 -533 483 -533 492 -533 C 500 -534 493 -533 501 -534 C 508 -536 502 -536 510 -538 C 517 -539 512 -538 519 -539 C 526 -540 520 -539 527 -540 C 534 -541 530 -541 536 -541 C 542 -541 535 -541 543 -539 C 551 -538 548 -539 555 -538 C 563 -538 557 -538 562 -538 C 567 -538 562 -538 569 -538 C 575 -538 570 -538 578 -538 C 586 -538 582 -538 589 -538 C 596 -537 589 -538 596 -538 C 603 -538 597 -538 606 -538 C 615 -538 610 -538 617 -538 C 625 -538 619 -538 625 -538 C 632 -538 626 -537 633 -538 C 640 -538 635 -537 642 -539 C 649 -541 645 -540 651 -542 C 657 -544 650 -544 658 -543 C 665 -543 662 -542 670 -541 C 678 -539 672 -540 677 -539 C 682 -539 678 -539 684 -539 C 689 -539 683 -539 690 -539 C 698 -539 695 -539 702 -538 C 709 -538 703 -538 709 -537 C 715 -536 710 -537 717 -537 C 724 -536 718 -537 726 -537 C 734 -537 729 -536 737 -537 C 746 -537 739 -537 747 -539 C 754 -540 749 -539 756 -540 C 763 -542 757 -542 764 -543 C 770 -545 765 -542 772 -543 C 779 -544 773 -544 780 -546 C 787 -547 782 -545 789 -547 C 796 -548 792 -548 798 -549 C 804 -550 798 -549 804 -549 C 810 -549 807 -549 813 -548 C 819 -547 814 -547 819 -546 C 824 -545 820 -545 826 -545 C 832 -545 828 -545 834 -545 C 840 -545 833 -546 841 -544 C 848 -543 845 -543 853 -542 C 861 -540 855 -541 862 -540 C 868 -539 863 -540 870 -539 C 877 -539 872 -539 880 -539 C 887 -540 882 -540 889 -541 C 895 -541 891 -541 896 -542 C 902 -542 897 -542 903 -541 C 910 -541 904 -540 912 -540 C 920 -539 915 -539 923 -540 C 931 -541 925 -540 933 -542 C 940 -544 934 -544 942 -544 C 950 -545 944 -544 952 -544 C 961 -545 955 -544 963 -546 C 972 -547 964 -547 973 -548 C 982 -549 976 -547 985 -549 C 995 -550 988 -550 997 -551 C 1006 -553 999 -551 1008 -552 C 1016 -554 1010 -554 1018 -555 C 1025 -555 1020 -555 1026 -555 C 1032 -555 1026 -555 1033 -555 C 1039 -554 1036 -554 1042 -554 C 1048 -553 1043 -554 1049 -553 C 1055 -553 1050 -553 1057 -552 C 1064 -552 1059 -551 1066 -552 C 1074 -552 1068 -553 1075 -554 C 1083 -555 1078 -554 1084 -553 C 1091 -553 1086 -553 1092 -552 C 1098 -551 1093 -552 1100 -551 C 1106 -549 1101 -550 1108 -549 C 1116 -548 1109 -548 1118 -549 C 1126 -550 1120 -551 1130 -552 C 1140 -554 1133 -553 1142 -553 C 1151 -554 1145 -553 1152 -553 C 1160 -554 1153 -554 1160 -555 C 1167 -555 1162 -554 1169 -555 C 1177 -555 1172 -555 1179 -556 C 1187 -557 1181 -556 1189 -557 C 1197 -558 1192 -558 1200 -558 C 1207 -558 1201 -558 1208 -557 C 1214 -557 1210 -558 1216 -557 C 1222 -557 1216 -557 1222 -556 C 1229 -556 1225 -557 1231 -556 C 1238 -556 1233 -557 1238 -555 C 1243 -554 1238 -554 1244 -553 C 1250 -552 1247 -552 1253 -552 C 1260 -551 1255 -552 1260 -552 C 1266 -551 1261 -552 1267 -550 C 1273 -549 1268 -550 1275 -548 C 1281 -546 1276 -547 1283 -545 C 1289 -543 1283 -545 1291 -544 C 1299 -543 1293 -543 1302 -542 C 1311 -542 1304 -542 1313 -542 C 1322 -542 1316 -542 1324 -542 C 1331 -541 1326 -542 1332 -542 C 1339 -542 1334 -542 1341 -542 C 1348 -542 1344 -541 1350 -542 C 1356 -542 1351 -542 1356 -543 C 1362 -543 1357 -543 1363 -543 C 1369 -543 1364 -543 1371 -542 C 1378 -542 1373 -542 1380 -542 C 1386 -541 1381 -542 1388 -540 C 1395 -539 1390 -539 1397 -539 C 1404 -538 1398 -539 1405 -539 C 1412 -539 1408 -539 1414 -539 C 1420 -539 1415 -539 1421 -539 C 1426 -539 1419 -539 1428 -539 C 1436 -539 1433 -539 1441 -539 C 1449 -539 1440 -538 1448 -538 C 1456 -538 1453 -538 1460 -538 C 1468 -538 1462 -538 1467 -538 C 1472 -538 1468 -538 1474 -538 C 1480 -537 1476 -538 1482 -538 C 1488 -537 1481 -538 1489 -536 C 1496 -535 1493 -536 1501 -533 C 1509 -530 1502 -532 1508 -530 C 1513 -528 1510 -530 1516 -528 C 1521 -526 1517 -527 1522 -525 C 1528 -522 1525 -524 1530 -522 C 1535 -521 1530 -522 1535 -520 C 1541 -518 1537 -519 1543 -518 C 1548 -516 1544 -518 1549 -516 C 1554 -514 1550 -514 1555 -513 C 1560 -511 1556 -513 1561 -512 C 1567 -510 1561 -513 1567 -509 C 1574 -506 1571 -508 1578 -503 C 1586 -499 1580 -502 1587 -498 C 1593 -494 1589 -496 1594 -493 C 1599 -490 1593 -494 1600 -491 C 1607 -487 1603 -490 1611 -484 C 1618 -479 1613 -484 1619 -478 C 1625 -472 1621 -475 1626 -470 C 1631 -465 1626 -469 1631 -465 C 1637 -460 1634 -463 1640 -459 C 1647 -455 1641 -459 1648 -455 C 1654 -451 1650 -455 1656 -448 C 1662 -442 1658 -447 1663 -439 C 1668 -431 1665 -435 1668 -429 C 1672 -422 1668 -429 1672 -423 C 1675 -416 1675 -419 1677 -412 C 1680 -405 1677 -411 1678 -406 C 1680 -400 1678 -404 1681 -399 C 1684 -393 1683 -398 1686 -391 C 1690 -385 1687 -389 1689 -381 C 1690 -373 1689 -378 1691 -372 C 1693 -365 1692 -372 1694 -365 C 1696 -359 1694 -361 1695 -355 C 1697 -348 1696 -354 1698 -349 C 1699 -344 1698 -347 1700 -342 C 1702 -336 1701 -341 1702 -336 C 1703 -330 1702 -333 1703 -327 C 1704 -321 1703 -327 1704 -320 C 1706 -313 1706 -318 1708 -309 C 1709 -300 1708 -305 1708 -297 C 1707 -289 1707 -296 1706 -289 C 1705 -282 1705 -286 1704 -280 C 1703 -274 1705 -279 1704 -273 C 1703 -267 1703 -271 1702 -265 C 1701 -259 1702 -264 1702 -258 C 1701 -252 1702 -256 1702 -249 C 1701 -243 1702 -248 1699 -241 C 1697 -234 1698 -239 1695 -231 C 1692 -223 1694 -228 1692 -221 C 1690 -214 1691 -219 1689 -213 C 1687 -206 1689 -211 1687 -204 C 1684 -197 1686 -202 1683 -195 C 1680 -189 1682 -193 1679 -188 C 1676 -183 1678 -188 1675 -182 C 1671 -176 1673 -180 1669 -173 C 1666 -166 1669 -172 1665 -165 C 1662 -158 1665 -163 1660 -156 C 1656 -149 1659 -154 1655 -147 C 1650 -140 1654 -145 1650 -138 C 1645 -131 1649 -137 1643 -129 C 1638 -121 1642 -126 1637 -118 C 1631 -111 1635 -116 1629 -110 C 1624 -103 1628 -108 1623 -102 C 1619 -96 1623 -100 1618 -96 C 1613 -91 1617 -95 1611 -91 C 1606 -86 1610 -89 1604 -84 C 1598 -79 1602 -83 1596 -78 C 1591 -72 1595 -75 1590 -71 C 1585 -67 1589 -71 1584 -68 C 1578 -65 1582 -67 1577 -64 C 1571 -61 1575 -64 1569 -61 C 1563 -57 1568 -59 1561 -56 C 1555 -52 1560 -55 1553 -52 C 1546 -49 1551 -50 1543 -48 C 1536 -47 1542 -50 1535 -48 C 1528 -46 1533 -47 1526 -44 C 1519 -42 1524 -43 1517 -41 C 1511 -40 1517 -41 1510 -39 C 1502 -38 1506 -39 1499 -37 C 1492 -35 1497 -36 1491 -35 C 1486 -34 1490 -35 1485 -35 C 1480 -35 1485 -35 1479 -35 C 1473 -35 1477 -35 1470 -35 C 1464 -34 1469 -34 1463 -33 C 1458 -33 1462 -34 1457 -33 C 1451 -32 1455 -33 1450 -31 C 1445 -29 1446 -29 1444 -29 C 1441 -30 1444 -31 1444 -32" fill="none" stroke="#c0392b" stroke-width="26" stroke-linecap="round" stroke-linejoin="round"/>
</svg>
