<svg xmlns="http://www.w3.org/2000/svg" viewBox="-164 -1664 2224 2578">
  <rect x="-164" y="-1664" width="2224" height="2578" fill="#ffffff"/>
  <path d="M1467 23Q1427 23 1400.0 6.5Q1373 -10 1373 -49Q1373 -90 1401.0 -103.5Q1429 -117 1469 -117Q1543 -117 1600.0 -172.0Q1657 -227 1657 -304Q1657 -403 1588.0 -453.0Q1519 -503 1417 -509Q1417 -367 1368.5 -245.5Q1320 -124 1224.0 -50.0Q1128 24 986 24Q885 24 805.0 -24.0Q725 -72 679 -130Q641 -69 573.0 -25.0Q505 19 411 19Q329 19 258.0 -21.0Q187 -61 143.5 -128.0Q100 -195 100 -275Q100 -405 164.0 -485.5Q228 -566 336.5 -605.0Q445 -644 578 -647Q600 -744 652.5 -830.0Q705 -916 789.0 -969.5Q873 -1023 989 -1023Q1105 -1023 1188.5 -970.0Q1272 -917 1325.0 -832.0Q1378 -747 1400 -650Q1507 -648 1597.0 -608.0Q1687 -568 1741.5 -491.5Q1796 -415 1796 -305Q1796 -217 1751.5 -142.5Q1707 -68 1632.5 -22.5Q1558 23 1467 23ZM723 -649H1255Q1227 -739 1161.5 -811.5Q1096 -884 989 -884Q918 -884 864.5 -850.0Q811 -816 776.0 -762.5Q741 -709 723 -649ZM1277 -509H702Q702 -411 732.5 -320.0Q763 -229 826.5 -171.5Q890 -114 988 -114Q1087 -114 1151.0 -170.5Q1215 -227 1246.0 -317.5Q1277 -408 1277 -509ZM240 -288Q240 -220 289.0 -171.0Q338 -122 405 -122Q485 -122 535.5 -172.0Q586 -222 586 -309Q562 -397 562 -506Q474 -503 401.0 -478.5Q328 -454 284.0 -407.0Q240 -360 240 -288Z" fill="#e5e0d8" stroke="none"/>
  <path d="M 659.9 -611.7 C 694.8 -684.7 720.7 -778.6 764.5 -830.7 C 808.2 -882.9 874.3 -908.8 922.3 -924.5 C 970.3 -940.2 1003.9 -938.0 1052.6 -925.1 C 1101.4 -912.2 1177.1 -871.9 1214.9 -847.0 C 1252.7 -822.2 1260.6 -827.6 1279.3 -776.1 C 1298.0 -724.6 1323.4 -610.2 1327.0 -538.0 C 1330.7 -465.8 1318.3 -405.1 1301.4 -342.7 C 1284.4 -280.4 1262.8 -212.7 1225.4 -164.1 C 1188.0 -115.4 1123.9 -67.4 1076.8 -50.9 C 1029.7 -34.4 986.1 -51.8 942.7 -65.0 C 899.4 -78.2 862.9 -86.1 816.8 -129.9 C 770.8 -173.7 692.3 -248.2 666.5 -327.7 C 640.8 -407.3 663.7 -514.0 662.3 -607.2 C 655.9 -483.6 661.3 -318.9 643.2 -236.5 C 625.1 -154.1 582.1 -141.2 553.8 -112.7 C 525.5 -84.2 501.5 -73.1 473.5 -65.5 C 445.5 -57.9 425.5 -51.4 385.6 -67.2 C 345.7 -82.9 268.2 -131.3 234.3 -159.8 C 200.4 -188.3 188.6 -201.9 182.1 -238.2 C 175.6 -274.4 161.2 -331.9 195.2 -377.4 C 229.2 -422.9 219.6 -480.4 386.0 -511.3 C 552.3 -542.2 1014.1 -556.2 1193.5 -562.6 C 1372.9 -569.0 1385.2 -565.8 1462.6 -549.7 C 1540.1 -533.5 1617.0 -494.5 1658.1 -465.9 C 1699.3 -437.4 1699.0 -409.8 1709.6 -378.4 C 1720.2 -346.9 1736.2 -323.6 1721.8 -277.1 C 1707.4 -230.6 1669.5 -139.8 1623.2 -99.6 C 1576.9 -59.5 1503.7 -57.2 1443.9 -36.0" fill="none" stroke="#c0392b" stroke-width="26" stroke-linecap="round" stroke-linejoin="round"/>
</svg>
