<svg xmlns="http://www.w3.org/2000/svg" viewBox="-204.8 -1704.8 6475.96 2659.6">
  <defs>
    <clipPath id="reveal-clip">
      <rect x="100.0" y="-1425.0" width="0" height="1812.0">
        <animate attributeName="width" begin="2.725s" dur="0.65s" fill="freeze"
          calcMode="spline" keyTimes="0;1" keySplines="0.33 1 0.68 1" values="0;5989.2"/>
      </rect>
    </clipPath>
  </defs>
  <g clip-path="url(#reveal-clip)" fill="#a78bfa" fill-opacity="0.9">
    <path d="M762 -880Q803 -944 871.5 -984.5Q940 -1025 1036 -1025Q1139 -1025 1223.5 -978.0Q1308 -931 1358.0 -850.5Q1408 -770 1408 -668Q1408 -575 1367.5 -503.5Q1327 -432 1274 -385Q1331 -360 1373.0 -306.0Q1415 -252 1415 -175Q1415 -82 1350.0 -17.0Q1285 48 1192 48Q1100 48 1034.5 -16.0Q969 -80 969 -176Q969 -184 969.5 -193.0Q970 -202 971 -210Q886 -166 795.5 -108.5Q705 -51 602.0 -8.5Q499 34 374 34Q305 34 242.5 7.5Q180 -19 140.0 -69.0Q100 -119 100 -192Q100 -271 144.0 -320.5Q188 -370 257.5 -393.5Q327 -417 402 -417Q523 -417 636.0 -402.5Q749 -388 854 -388Q954 -388 1049.0 -416.0Q1144 -444 1206.0 -505.5Q1268 -567 1268 -668Q1268 -761 1199.5 -823.0Q1131 -885 1036 -885Q939 -885 891.5 -823.0Q844 -761 842 -667V-496Q841 -468 820.0 -448.0Q799 -428 770 -428Q741 -428 721.0 -448.5Q701 -469 701 -498V-667Q702 -728 669.5 -777.0Q637 -826 583.0 -855.5Q529 -885 464 -885Q420 -885 384 -872Q459 -857 512.0 -797.0Q565 -737 565 -648Q565 -553 501.5 -489.0Q438 -425 343 -425Q236 -425 170.5 -501.5Q105 -578 105 -682Q105 -780 153.0 -857.5Q201 -935 282.5 -980.5Q364 -1026 462 -1026Q562 -1026 636.5 -985.5Q711 -945 762 -880ZM339 -736Q302 -736 278.0 -712.0Q254 -688 254 -651Q254 -613 280.5 -587.0Q307 -561 343 -561Q378 -561 401.5 -586.0Q425 -611 425 -647Q425 -685 401.0 -710.5Q377 -736 339 -736ZM756 -250Q664 -256 578.0 -266.5Q492 -277 406 -277Q370 -277 331.5 -270.0Q293 -263 266.5 -245.0Q240 -227 240 -193Q240 -146 283.5 -126.0Q327 -106 376 -106Q483 -106 579.5 -155.0Q676 -204 756 -250ZM1191 -259Q1156 -259 1132.5 -235.0Q1109 -211 1109 -176Q1109 -140 1133.5 -116.0Q1158 -92 1192 -92Q1227 -92 1251.0 -116.0Q1275 -140 1275 -174Q1275 -209 1251.5 -234.0Q1228 -259 1191 -259Z" transform="translate(0,0)"/><path d="M440 -1025Q528 -1025 600.0 -975.5Q672 -926 712 -853Q762 -930 839.0 -979.0Q916 -1028 1025 -1028Q1132 -1028 1212.5 -970.5Q1293 -913 1338.0 -819.0Q1383 -725 1383 -615Q1383 -454 1319.0 -330.0Q1255 -206 1153 -120Q1192 -113 1234 -113Q1359 -113 1458.0 -175.5Q1557 -238 1615.0 -340.5Q1673 -443 1673 -563Q1673 -670 1627.5 -759.0Q1582 -848 1521 -901Q1497 -922 1497 -952Q1497 -981 1517.5 -1002.5Q1538 -1024 1566 -1024Q1595 -1024 1614 -1006Q1692 -937 1753.5 -823.0Q1815 -709 1815 -575Q1815 -405 1739.0 -268.5Q1663 -132 1530.5 -52.0Q1398 28 1227 28Q1109 28 992 -23Q929 3 866.5 15.5Q804 28 745 28Q614 28 497.5 -24.0Q381 -76 291.5 -168.0Q202 -260 151.0 -380.0Q100 -500 100 -636Q100 -742 139.5 -830.0Q179 -918 255.0 -971.5Q331 -1025 440 -1025ZM447 -890Q344 -890 292.5 -815.0Q241 -740 241 -633Q241 -491 308.5 -373.0Q376 -255 491.5 -184.5Q607 -114 749 -114Q790 -114 836 -122Q741 -207 686.5 -319.5Q632 -432 632 -613Q632 -671 610.5 -735.5Q589 -800 548.0 -845.0Q507 -890 447 -890ZM770 -571Q770 -486 802.0 -409.5Q834 -333 885.5 -273.5Q937 -214 994 -179Q1093 -235 1167.5 -345.0Q1242 -455 1242 -606Q1242 -677 1216.0 -741.5Q1190 -806 1141.5 -847.0Q1093 -888 1026 -888Q948 -888 890.5 -845.0Q833 -802 801.5 -730.0Q770 -658 770 -571Z" transform="translate(1392.12,0)"/><path d="M703 -475Q703 -381 738.5 -300.0Q774 -219 840.5 -169.5Q907 -120 1000 -120Q1113 -120 1170.0 -196.0Q1227 -272 1227 -390Q1227 -420 1224.0 -458.5Q1221 -497 1221 -532Q1221 -671 1283.0 -781.0Q1345 -891 1453.0 -955.0Q1561 -1019 1699 -1019Q1858 -1019 1972.0 -942.5Q2086 -866 2150 -759Q2250 -725 2331.0 -649.5Q2412 -574 2460.0 -464.0Q2508 -354 2508 -217Q2508 -9 2410.5 118.5Q2313 246 2145.5 305.0Q1978 364 1768 369L1102 383Q893 383 711.5 331.5Q530 280 392.5 177.0Q255 74 177.5 -79.5Q100 -233 100 -437Q100 -615 157.0 -746.0Q214 -877 317 -986Q338 -1009 368 -1009Q397 -1009 417.5 -988.5Q438 -968 438 -939Q438 -910 418 -890Q336 -804 288.0 -687.0Q240 -570 240 -441Q240 -264 307.5 -133.5Q375 -3 495.0 82.0Q615 167 773.5 207.0Q932 247 1113 243L1765 229Q1934 225 2070.5 183.5Q2207 142 2287.5 46.0Q2368 -50 2368 -217Q2368 -330 2329.5 -414.0Q2291 -498 2226 -556Q2235 -499 2235 -447Q2235 -328 2190.0 -222.5Q2145 -117 2060.5 -51.0Q1976 15 1857 15Q1760 15 1688.5 -31.5Q1617 -78 1577.5 -157.0Q1538 -236 1538 -332Q1538 -455 1596.5 -551.0Q1655 -647 1749.5 -706.5Q1844 -766 1952 -780Q1897 -829 1831.0 -853.5Q1765 -878 1697 -878Q1603 -878 1527.0 -835.5Q1451 -793 1406.5 -717.5Q1362 -642 1362 -542Q1362 -514 1364.5 -469.0Q1367 -424 1367 -389Q1367 -208 1269.0 -93.5Q1171 21 996 21Q874 21 775.5 -46.0Q677 -113 620.0 -224.0Q563 -335 563 -466Q563 -585 601.5 -686.5Q640 -788 703.5 -867.0Q767 -946 842 -998Q859 -1011 886 -1011Q915 -1011 933.5 -988.5Q952 -966 952 -936Q952 -903 921 -882Q834 -823 768.5 -718.0Q703 -613 703 -475ZM1853 -127Q1933 -127 1986.5 -176.0Q2040 -225 2067.0 -300.0Q2094 -375 2094 -453Q2094 -500 2084.5 -547.0Q2075 -594 2055 -639Q2031 -643 2002 -643Q1917 -643 1843.0 -600.5Q1769 -558 1723.5 -487.0Q1678 -416 1678 -329Q1678 -250 1727.0 -188.5Q1776 -127 1853 -127Z" transform="translate(3184.24,0)"/><path d="M6 -1207Q6 -1125 -52.5 -1068.5Q-111 -1012 -194 -1012Q-243 -1012 -285.5 -1039.0Q-328 -1066 -354.0 -1109.0Q-380 -1152 -380 -1200Q-380 -1273 -341.0 -1322.0Q-302 -1371 -238.5 -1396.0Q-175 -1421 -102 -1421Q97 -1421 197.0 -1313.5Q297 -1206 297 -1003L294 -43Q294 -9 272.0 8.0Q250 25 224 25Q198 25 176.0 7.5Q154 -10 154 -44L157 -1003Q157 -1119 122.0 -1195.0Q87 -1271 -7 -1273Q3 -1252 4.5 -1237.0Q6 -1222 6 -1207ZM-185 -1300Q-223 -1300 -250.5 -1273.5Q-278 -1247 -278 -1201Q-278 -1161 -248.5 -1135.5Q-219 -1110 -185 -1110Q-152 -1110 -124.0 -1134.5Q-96 -1159 -96 -1201Q-96 -1247 -121.0 -1273.5Q-146 -1300 -185 -1300Z" transform="translate(5792.24,0)"/>
  </g>
  <path d="M 100.7 -211.9 L 107.7 -253.0 L 123.4 -291.5 L 148.1 -325.0 L 179.2 -352.9 L 214.4 -375.2 L 252.7 -391.8 L 292.7 -403.8 L 333.6 -411.9 L 375.1 -416.2 L 416.8 -416.9 L 458.6 -416.2 L 500.3 -414.5 L 542.0 -412.0 L 583.6 -408.4 L 625.1 -403.9 L 666.5 -398.8 L 708.0 -394.7 L 749.7 -391.5 L 791.4 -389.3 L 833.1 -388.1 L 874.8 -388.3 L 916.5 -390.8 L 958.0 -395.8 L 999.0 -403.3 L 1039.5 -413.3 L 1079.3 -426.1 L 1117.6 -442.7 L 1153.8 -463.4 L 1187.2 -488.3 L 1217.1 -517.4 L 1240.9 -551.7 L 1257.0 -590.1 L 1265.7 -630.8 L 1268.0 -672.5 L 1263.4 -713.9 L 1250.7 -753.6 L 1229.8 -789.7 L 1202.0 -820.7 L 1169.2 -846.5 L 1132.5 -866.2 L 1092.8 -878.9 L 1051.5 -884.6 L 1009.8 -883.8 L 968.8 -875.9 L 930.8 -858.8 L 899.0 -832.1 L 874.9 -798.0 L 857.7 -760.0 L 847.1 -719.7 L 842.4 -678.3 L 842.0 -636.5 L 842.0 -594.8 L 842.0 -553.0 L 842.0 -511.3 L 836.2 -470.3 L 809.1 -439.3 L 769.5 -428.0 L 730.3 -440.4 L 705.3 -473.0 L 701.0 -514.3 L 701.0 -556.0 L 701.0 -597.8 L 701.0 -639.5 L 700.8 -681.3 L 694.3 -722.4 L 679.0 -761.2 L 655.7 -795.8 L 626.6 -825.6 L 592.7 -849.9 L 555.3 -868.4 L 515.3 -880.1 L 473.9 -884.8 L 432.2 -883.2 L 391.4 -874.5 L 416.7 -863.0 L 454.4 -845.2 L 488.2 -820.8 L 517.2 -790.9 L 540.2 -756.1 L 555.7 -717.4 L 563.6 -676.5 L 564.7 -634.8 L 559.2 -593.4 L 546.2 -553.8 L 525.6 -517.6 L 498.4 -486.0 L 466.0 -459.8 L 429.0 -440.6 L 389.0 -429.1 L 347.4 -425.0 L 305.8 -427.5 L 265.2 -436.9 L 227.2 -453.9 L 193.3 -478.3 L 164.7 -508.5 L 141.0 -542.9 L 123.0 -580.5 L 111.2 -620.5 L 105.6 -661.9 L 105.6 -703.6 L 110.3 -745.0 L 120.1 -785.6 L 135.2 -824.5 L 155.2 -861.1 L 179.6 -894.9 L 207.9 -925.6 L 239.7 -952.7 L 274.4 -975.8 L 311.5 -995.0 L 350.5 -1009.7 L 391.0 -1019.6 L 432.4 -1024.9 L 474.1 -1025.8 L 515.8 -1022.9 L 556.9 -1015.6 L 596.8 -1003.5 L 634.8 -986.4 L 670.6 -964.9 L 704.0 -939.8 L 734.6 -911.4 L 762.0 -880.0 L 786.8 -913.6 L 815.7 -943.6 L 848.4 -969.6 L 883.9 -991.4 L 922.3 -1007.7 L 962.7 -1018.3 L 1004.0 -1023.8 L 1045.7 -1024.9 L 1087.4 -1021.9 L 1128.5 -1014.7 L 1168.5 -1002.9 L 1206.9 -986.7 L 1243.3 -966.2 L 1277.3 -941.9 L 1308.2 -914.0 L 1335.7 -882.6 L 1359.4 -848.2 L 1378.8 -811.3 L 1393.3 -772.2 L 1402.8 -731.6 L 1407.4 -690.1 L 1407.5 -648.3 L 1403.3 -606.8 L 1394.0 -566.2 L 1379.5 -527.1 L 1359.8 -490.3 L 1336.9 -455.4 L 1311.0 -422.6 L 1282.2 -392.5 L 1301.2 -370.9 L 1334.9 -346.4 L 1364.3 -316.7 L 1388.5 -282.8 L 1405.0 -244.5 L 1413.5 -203.7 L 1414.7 -162.0 L 1408.9 -120.7 L 1395.4 -81.3 L 1374.3 -45.4 L 1346.9 -13.9 L 1314.5 12.3 L 1277.7 31.9 L 1237.7 43.7 L 1196.3 48.0 L 1154.6 45.2 L 1114.2 34.9 L 1076.7 16.9 L 1043.2 -7.9 L 1014.5 -38.2 L 992.1 -73.3 L 977.2 -112.2 L 970.0 -153.3 L 969.6 -195.0 L 947.4 -197.6 L 910.8 -177.5 L 874.5 -156.8 L 838.7 -135.4 L 803.2 -113.4 L 767.7 -91.4 L 731.5 -70.6 L 694.6 -51.0 L 657.1 -32.7 L 619.0 -15.7 L 580.3 -0.1 L 540.5 12.6 L 499.9 22.2 L 458.7 28.8 L 417.1 32.7 L 375.4 34.0 L 333.7 31.7 L 292.7 24.2 L 252.9 11.7 L 215.0 -5.9 L 180.3 -29.0 L 149.8 -57.4 L 125.0 -90.9 L 108.6 -129.2 L 100.9 -170.2 Z" transform="translate(0,0)" fill="none" stroke="#1a1a2e" stroke-width="45.1" stroke-linecap="round" stroke-linejoin="round" stroke-dasharray="8293.5 8293.5" stroke-dashoffset="8293.5"><animate attributeName="stroke-dashoffset" from="8293.5" to="0" begin="0.000s" dur="0.197s" fill="freeze" calcMode="linear"/></path><path d="M 254.0 -651.8 L 254.0 -649.0 L 254.1 -646.3 L 254.3 -643.6 L 254.5 -640.9 L 254.8 -638.1 L 255.2 -635.4 L 255.7 -632.7 L 256.2 -630.1 L 256.8 -627.4 L 257.6 -624.8 L 258.4 -622.2 L 259.2 -619.6 L 260.2 -617.0 L 261.3 -614.5 L 262.4 -612.0 L 263.6 -609.6 L 264.9 -607.2 L 266.3 -604.8 L 267.8 -602.5 L 269.3 -600.2 L 270.9 -598.0 L 272.5 -595.8 L 274.3 -593.7 L 276.1 -591.6 L 277.9 -589.6 L 279.8 -587.7 L 281.8 -585.8 L 283.8 -583.9 L 285.8 -582.1 L 287.9 -580.4 L 290.1 -578.7 L 292.3 -577.0 L 294.5 -575.5 L 296.8 -574.0 L 299.2 -572.6 L 301.6 -571.2 L 304.0 -570.0 L 306.4 -568.8 L 308.9 -567.7 L 311.5 -566.7 L 314.0 -565.7 L 316.6 -564.9 L 319.3 -564.1 L 321.9 -563.4 L 324.6 -562.8 L 327.3 -562.3 L 330.0 -561.9 L 332.7 -561.6 L 335.4 -561.3 L 338.1 -561.1 L 340.9 -561.0 L 343.6 -561.0 L 346.3 -561.1 L 349.1 -561.2 L 351.8 -561.4 L 354.5 -561.7 L 357.2 -562.1 L 359.9 -562.6 L 362.6 -563.2 L 365.2 -563.8 L 367.9 -564.6 L 370.5 -565.4 L 373.0 -566.4 L 375.5 -567.4 L 378.0 -568.6 L 380.5 -569.8 L 382.9 -571.1 L 385.2 -572.5 L 387.5 -574.0 L 389.7 -575.6 L 391.9 -577.2 L 394.1 -578.9 L 396.1 -580.7 L 398.1 -582.6 L 400.1 -584.5 L 402.0 -586.5 L 403.8 -588.5 L 405.6 -590.6 L 407.3 -592.7 L 408.9 -594.9 L 410.5 -597.2 L 412.0 -599.5 L 413.4 -601.8 L 414.7 -604.2 L 416.0 -606.6 L 417.2 -609.1 L 418.3 -611.6 L 419.3 -614.1 L 420.2 -616.7 L 421.0 -619.3 L 421.8 -621.9 L 422.5 -624.6 L 423.1 -627.2 L 423.6 -629.9 L 424.0 -632.6 L 424.4 -635.3 L 424.6 -638.1 L 424.8 -640.8 L 424.9 -643.5 L 425.0 -646.2 L 425.0 -649.0 L 424.9 -651.7 L 424.8 -654.4 L 424.5 -657.2 L 424.3 -659.9 L 423.9 -662.6 L 423.5 -665.3 L 423.0 -668.0 L 422.4 -670.7 L 421.7 -673.3 L 421.0 -675.9 L 420.2 -678.6 L 419.3 -681.1 L 418.3 -683.7 L 417.2 -686.2 L 416.1 -688.7 L 414.9 -691.1 L 413.6 -693.5 L 412.2 -695.9 L 410.7 -698.2 L 409.2 -700.5 L 407.6 -702.7 L 405.9 -704.8 L 404.2 -707.0 L 402.4 -709.0 L 400.5 -711.0 L 398.6 -713.0 L 396.6 -714.8 L 394.6 -716.7 L 392.5 -718.4 L 390.3 -720.1 L 388.1 -721.7 L 385.8 -723.2 L 383.5 -724.6 L 381.1 -726.0 L 378.7 -727.3 L 376.2 -728.4 L 373.7 -729.5 L 371.2 -730.5 L 368.6 -731.5 L 366.0 -732.3 L 363.4 -733.0 L 360.7 -733.7 L 358.0 -734.2 L 355.3 -734.7 L 352.6 -735.1 L 349.9 -735.4 L 347.2 -735.7 L 344.5 -735.9 L 341.7 -736.0 L 339.0 -736.0 L 336.3 -736.0 L 333.5 -735.9 L 330.8 -735.7 L 328.1 -735.4 L 325.4 -735.1 L 322.7 -734.7 L 320.0 -734.3 L 317.3 -733.7 L 314.6 -733.0 L 312.0 -732.3 L 309.4 -731.5 L 306.8 -730.6 L 304.3 -729.6 L 301.8 -728.5 L 299.3 -727.4 L 296.9 -726.1 L 294.5 -724.8 L 292.1 -723.4 L 289.8 -721.9 L 287.6 -720.3 L 285.4 -718.6 L 283.3 -716.9 L 281.3 -715.1 L 279.3 -713.2 L 277.3 -711.3 L 275.4 -709.3 L 273.6 -707.3 L 271.9 -705.2 L 270.2 -703.0 L 268.6 -700.8 L 267.1 -698.5 L 265.6 -696.2 L 264.3 -693.8 L 263.0 -691.4 L 261.8 -689.0 L 260.7 -686.5 L 259.7 -683.9 L 258.7 -681.3 L 257.9 -678.7 L 257.2 -676.1 L 256.5 -673.5 L 255.9 -670.8 L 255.4 -668.1 L 255.0 -665.4 L 254.6 -662.7 L 254.4 -660.0 L 254.2 -657.2 L 254.1 -654.5 Z" transform="translate(0,0)" fill="none" stroke="#1a1a2e" stroke-width="45.1" stroke-linecap="round" stroke-linejoin="round" stroke-dasharray="546.9 546.9" stroke-dashoffset="546.9"><animate attributeName="stroke-dashoffset" from="546.9" to="0" begin="0.317s" dur="0.080s" fill="freeze" calcMode="linear"/></path><path d="M 240.0 -192.8 L 240.2 -187.0 L 240.7 -181.3 L 241.7 -175.6 L 243.0 -170.1 L 244.9 -164.6 L 247.1 -159.3 L 249.9 -154.3 L 253.1 -149.5 L 256.7 -145.1 L 260.7 -141.0 L 265.1 -137.2 L 269.7 -133.8 L 274.5 -130.7 L 279.6 -127.9 L 284.8 -125.4 L 290.0 -123.1 L 295.3 -121.0 L 300.7 -118.9 L 306.2 -117.1 L 311.6 -115.3 L 317.2 -113.7 L 322.7 -112.3 L 328.3 -111.0 L 334.0 -109.9 L 339.6 -108.9 L 345.3 -108.0 L 351.0 -107.3 L 356.7 -106.8 L 362.5 -106.4 L 368.2 -106.1 L 373.9 -106.0 L 379.7 -106.0 L 385.4 -106.1 L 391.2 -106.2 L 396.9 -106.5 L 402.7 -106.8 L 408.4 -107.1 L 414.1 -107.6 L 419.9 -108.1 L 425.6 -108.7 L 431.3 -109.4 L 437.0 -110.1 L 442.7 -110.9 L 448.4 -111.8 L 454.0 -112.8 L 459.7 -113.8 L 465.3 -114.9 L 470.9 -116.1 L 476.5 -117.3 L 482.1 -118.7 L 487.7 -120.1 L 493.3 -121.6 L 498.8 -123.1 L 504.3 -124.7 L 509.8 -126.4 L 515.3 -128.2 L 520.7 -130.0 L 526.1 -131.9 L 531.5 -133.9 L 536.9 -136.0 L 542.3 -138.1 L 547.6 -140.2 L 552.9 -142.5 L 558.1 -144.8 L 563.4 -147.2 L 568.6 -149.6 L 573.7 -152.1 L 578.9 -154.7 L 584.0 -157.3 L 589.1 -159.9 L 594.2 -162.5 L 599.4 -165.1 L 604.5 -167.8 L 609.6 -170.4 L 614.7 -173.0 L 619.8 -175.7 L 624.9 -178.4 L 630.0 -181.0 L 635.1 -183.7 L 640.1 -186.4 L 645.2 -189.0 L 650.3 -191.7 L 655.4 -194.4 L 660.5 -197.1 L 665.5 -199.8 L 670.6 -202.6 L 675.6 -205.3 L 680.7 -208.0 L 685.8 -210.8 L 690.8 -213.5 L 695.8 -216.3 L 700.9 -219.0 L 705.9 -221.8 L 710.9 -224.6 L 716.0 -227.4 L 721.0 -230.2 L 726.0 -233.0 L 731.0 -235.8 L 736.0 -238.6 L 741.0 -241.4 L 746.0 -244.3 L 751.0 -247.1 L 756.0 -250.0 L 750.3 -250.4 L 744.5 -250.8 L 738.8 -251.2 L 733.1 -251.6 L 727.3 -252.0 L 721.6 -252.4 L 715.9 -252.9 L 710.1 -253.3 L 704.4 -253.8 L 698.7 -254.2 L 693.0 -254.7 L 687.2 -255.2 L 681.5 -255.7 L 675.8 -256.2 L 670.1 -256.7 L 664.3 -257.2 L 658.6 -257.8 L 652.9 -258.3 L 647.2 -258.9 L 641.4 -259.4 L 635.7 -260.0 L 630.0 -260.6 L 624.3 -261.2 L 618.6 -261.8 L 612.9 -262.5 L 607.2 -263.1 L 601.4 -263.7 L 595.7 -264.4 L 590.0 -265.1 L 584.3 -265.7 L 578.6 -266.4 L 572.9 -267.1 L 567.2 -267.8 L 561.5 -268.4 L 555.8 -269.0 L 550.1 -269.6 L 544.3 -270.2 L 538.6 -270.8 L 532.9 -271.3 L 527.2 -271.8 L 521.4 -272.3 L 515.7 -272.7 L 510.0 -273.2 L 504.2 -273.6 L 498.5 -274.0 L 492.8 -274.3 L 487.0 -274.7 L 481.3 -275.0 L 475.6 -275.3 L 469.8 -275.6 L 464.1 -275.8 L 458.3 -276.0 L 452.6 -276.2 L 446.8 -276.4 L 441.1 -276.6 L 435.4 -276.7 L 429.6 -276.8 L 423.9 -276.9 L 418.1 -276.9 L 412.4 -277.0 L 406.6 -277.0 L 400.9 -277.0 L 395.1 -276.8 L 389.4 -276.6 L 383.6 -276.3 L 377.9 -276.0 L 372.2 -275.5 L 366.5 -275.0 L 360.7 -274.3 L 355.0 -273.7 L 349.3 -272.9 L 343.7 -272.0 L 338.0 -271.1 L 332.3 -270.1 L 326.7 -269.1 L 321.1 -267.8 L 315.5 -266.5 L 309.9 -264.9 L 304.4 -263.2 L 299.0 -261.4 L 293.6 -259.3 L 288.4 -257.1 L 283.1 -254.6 L 278.0 -252.0 L 273.0 -249.2 L 268.2 -246.1 L 263.5 -242.8 L 259.0 -239.2 L 255.0 -235.1 L 251.3 -230.6 L 248.2 -225.8 L 245.5 -220.7 L 243.4 -215.4 L 241.9 -209.9 L 240.8 -204.2 L 240.2 -198.5 Z" transform="translate(0,0)" fill="none" stroke="#1a1a2e" stroke-width="45.1" stroke-linecap="round" stroke-linejoin="round" stroke-dasharray="1149.5 1149.5" stroke-dashoffset="1149.5"><animate attributeName="stroke-dashoffset" from="1149.5" to="0" begin="0.517s" dur="0.080s" fill="freeze" calcMode="linear"/></path><path d="M 1109.0 -174.9 L 1109.1 -172.3 L 1109.2 -169.7 L 1109.4 -167.1 L 1109.7 -164.4 L 1110.0 -161.8 L 1110.4 -159.2 L 1110.9 -156.7 L 1111.5 -154.1 L 1112.2 -151.6 L 1112.9 -149.0 L 1113.8 -146.6 L 1114.7 -144.1 L 1115.7 -141.7 L 1116.8 -139.3 L 1117.9 -136.9 L 1119.2 -134.6 L 1120.5 -132.3 L 1121.9 -130.1 L 1123.4 -127.9 L 1124.9 -125.8 L 1126.5 -123.7 L 1128.2 -121.7 L 1129.9 -119.7 L 1131.7 -117.8 L 1133.6 -115.9 L 1135.5 -114.1 L 1137.4 -112.4 L 1139.4 -110.7 L 1141.5 -109.0 L 1143.6 -107.4 L 1145.7 -105.9 L 1147.9 -104.5 L 1150.1 -103.1 L 1152.4 -101.8 L 1154.7 -100.6 L 1157.1 -99.4 L 1159.5 -98.4 L 1161.9 -97.4 L 1164.4 -96.5 L 1166.9 -95.7 L 1169.4 -94.9 L 1172.0 -94.3 L 1174.5 -93.7 L 1177.1 -93.2 L 1179.7 -92.8 L 1182.3 -92.5 L 1184.9 -92.3 L 1187.6 -92.1 L 1190.2 -92.0 L 1192.8 -92.0 L 1195.4 -92.1 L 1198.1 -92.2 L 1200.7 -92.4 L 1203.3 -92.7 L 1205.9 -93.0 L 1208.5 -93.4 L 1211.1 -94.0 L 1213.6 -94.5 L 1216.2 -95.2 L 1218.7 -96.0 L 1221.2 -96.8 L 1223.6 -97.8 L 1226.1 -98.8 L 1228.4 -99.9 L 1230.8 -101.0 L 1233.1 -102.3 L 1235.4 -103.6 L 1237.6 -105.0 L 1239.8 -106.5 L 1241.9 -108.0 L 1244.0 -109.7 L 1246.0 -111.3 L 1247.9 -113.1 L 1249.9 -114.9 L 1251.7 -116.7 L 1253.5 -118.6 L 1255.3 -120.6 L 1257.0 -122.6 L 1258.6 -124.6 L 1260.2 -126.8 L 1261.7 -128.9 L 1263.1 -131.1 L 1264.5 -133.4 L 1265.8 -135.7 L 1267.0 -138.0 L 1268.1 -140.4 L 1269.1 -142.8 L 1270.1 -145.2 L 1270.9 -147.7 L 1271.7 -150.2 L 1272.4 -152.7 L 1273.0 -155.3 L 1273.5 -157.9 L 1274.0 -160.5 L 1274.3 -163.1 L 1274.6 -165.7 L 1274.8 -168.3 L 1275.0 -170.9 L 1275.0 -173.6 L 1275.0 -176.2 L 1274.9 -178.8 L 1274.7 -181.4 L 1274.5 -184.0 L 1274.2 -186.7 L 1273.8 -189.3 L 1273.4 -191.8 L 1272.8 -194.4 L 1272.2 -197.0 L 1271.5 -199.5 L 1270.7 -202.0 L 1269.9 -204.5 L 1268.9 -206.9 L 1267.9 -209.4 L 1266.8 -211.8 L 1265.7 -214.1 L 1264.4 -216.4 L 1263.1 -218.7 L 1261.7 -220.9 L 1260.3 -223.1 L 1258.8 -225.3 L 1257.2 -227.4 L 1255.5 -229.4 L 1253.8 -231.4 L 1252.1 -233.4 L 1250.3 -235.3 L 1248.4 -237.1 L 1246.5 -238.9 L 1244.5 -240.6 L 1242.5 -242.3 L 1240.4 -243.9 L 1238.2 -245.4 L 1236.0 -246.8 L 1233.8 -248.2 L 1231.5 -249.5 L 1229.2 -250.7 L 1226.8 -251.8 L 1224.4 -252.9 L 1221.9 -253.8 L 1219.4 -254.7 L 1216.9 -255.5 L 1214.4 -256.2 L 1211.9 -256.8 L 1209.3 -257.3 L 1206.7 -257.8 L 1204.1 -258.2 L 1201.5 -258.5 L 1198.9 -258.7 L 1196.3 -258.9 L 1193.6 -259.0 L 1191.0 -259.0 L 1188.4 -259.0 L 1185.7 -258.9 L 1183.1 -258.7 L 1180.5 -258.4 L 1177.9 -258.1 L 1175.3 -257.7 L 1172.7 -257.2 L 1170.2 -256.6 L 1167.6 -256.0 L 1165.1 -255.2 L 1162.6 -254.4 L 1160.1 -253.5 L 1157.7 -252.5 L 1155.3 -251.4 L 1153.0 -250.3 L 1150.6 -249.0 L 1148.4 -247.7 L 1146.2 -246.3 L 1144.0 -244.8 L 1141.9 -243.3 L 1139.8 -241.7 L 1137.8 -240.0 L 1135.8 -238.2 L 1133.9 -236.4 L 1132.1 -234.5 L 1130.3 -232.6 L 1128.5 -230.7 L 1126.8 -228.6 L 1125.2 -226.6 L 1123.7 -224.5 L 1122.2 -222.3 L 1120.8 -220.1 L 1119.5 -217.8 L 1118.2 -215.5 L 1117.0 -213.1 L 1115.9 -210.8 L 1114.9 -208.3 L 1114.0 -205.9 L 1113.1 -203.4 L 1112.4 -200.9 L 1111.7 -198.3 L 1111.1 -195.8 L 1110.5 -193.2 L 1110.1 -190.6 L 1109.7 -188.0 L 1109.4 -185.4 L 1109.2 -182.8 L 1109.1 -180.2 L 1109.0 -177.5 Z" transform="translate(0,0)" fill="none" stroke="#1a1a2e" stroke-width="45.1" stroke-linecap="round" stroke-linejoin="round" stroke-dasharray="525.4 525.4" stroke-dashoffset="525.4"><animate attributeName="stroke-dashoffset" from="525.4" to="0" begin="0.717s" dur="0.080s" fill="freeze" calcMode="linear"/></path><path d="M 100.0 -637.9 L 101.2 -671.9 L 104.5 -705.7 L 110.2 -739.3 L 118.4 -772.3 L 129.0 -804.6 L 142.2 -835.9 L 158.0 -866.0 L 176.6 -894.5 L 198.0 -920.9 L 221.9 -945.0 L 248.2 -966.6 L 276.6 -985.3 L 307.1 -1000.3 L 339.2 -1011.6 L 372.3 -1019.3 L 406.0 -1023.6 L 440.0 -1025.0 L 473.9 -1023.1 L 507.4 -1017.2 L 539.9 -1007.2 L 570.9 -993.2 L 599.9 -975.5 L 627.1 -955.1 L 652.3 -932.3 L 675.3 -907.2 L 695.6 -880.0 L 713.3 -855.1 L 733.1 -882.7 L 755.0 -908.7 L 779.0 -932.8 L 804.9 -954.9 L 832.5 -974.8 L 861.7 -992.0 L 892.8 -1005.8 L 925.2 -1016.1 L 958.5 -1023.0 L 992.3 -1026.8 L 1026.3 -1028.0 L 1060.2 -1026.4 L 1093.9 -1021.5 L 1126.9 -1013.2 L 1158.7 -1001.2 L 1189.0 -985.8 L 1217.3 -967.0 L 1243.7 -945.6 L 1268.2 -922.0 L 1290.3 -896.2 L 1310.2 -868.6 L 1327.6 -839.4 L 1342.7 -808.9 L 1355.4 -777.4 L 1365.8 -745.0 L 1373.7 -711.9 L 1379.1 -678.3 L 1382.2 -644.5 L 1383.0 -610.5 L 1382.1 -576.5 L 1379.6 -542.6 L 1375.5 -508.8 L 1369.6 -475.3 L 1361.9 -442.2 L 1352.2 -409.6 L 1340.7 -377.6 L 1327.1 -346.4 L 1311.6 -316.1 L 1294.7 -286.6 L 1276.4 -257.9 L 1256.8 -230.2 L 1235.8 -203.5 L 1213.4 -177.8 L 1189.7 -153.4 L 1164.8 -130.2 L 1171.1 -117.1 L 1205.0 -113.9 L 1239.0 -113.0 L 1272.9 -114.6 L 1306.7 -118.6 L 1340.0 -125.4 L 1372.7 -134.8 L 1404.4 -147.1 L 1435.0 -162.0 L 1464.2 -179.4 L 1492.0 -199.0 L 1518.3 -220.6 L 1542.9 -244.0 L 1565.7 -269.2 L 1586.6 -296.1 L 1605.5 -324.4 L 1622.3 -353.9 L 1636.9 -384.6 L 1649.2 -416.3 L 1658.9 -448.9 L 1666.1 -482.1 L 1670.7 -515.8 L 1672.8 -549.8 L 1672.6 -583.8 L 1669.9 -617.7 L 1664.7 -651.3 L 1656.8 -684.3 L 1646.2 -716.7 L 1632.9 -748.0 L 1617.3 -778.2 L 1599.9 -807.4 L 1580.7 -835.5 L 1559.6 -862.1 L 1536.3 -886.9 L 1511.8 -910.4 L 1497.9 -941.0 L 1500.5 -974.6 L 1518.2 -1003.3 L 1546.7 -1021.2 L 1580.4 -1022.8 L 1610.9 -1008.7 L 1635.8 -985.5 L 1659.1 -960.8 L 1680.9 -934.7 L 1701.3 -907.5 L 1720.4 -879.3 L 1738.1 -850.3 L 1754.8 -820.6 L 1769.8 -790.1 L 1782.7 -758.7 L 1793.5 -726.4 L 1802.1 -693.5 L 1808.5 -660.1 L 1812.7 -626.4 L 1814.7 -592.4 L 1814.8 -558.4 L 1813.3 -524.5 L 1810.1 -490.6 L 1805.2 -456.9 L 1798.4 -423.6 L 1789.9 -390.7 L 1779.5 -358.3 L 1767.3 -326.6 L 1753.2 -295.6 L 1737.3 -265.5 L 1719.8 -236.4 L 1700.7 -208.2 L 1680.0 -181.3 L 1657.8 -155.6 L 1634.0 -131.2 L 1608.8 -108.4 L 1582.3 -87.1 L 1554.6 -67.3 L 1525.8 -49.2 L 1496.0 -32.9 L 1465.2 -18.4 L 1433.6 -6.0 L 1401.2 4.5 L 1368.3 12.9 L 1334.9 19.4 L 1301.2 24.0 L 1267.3 26.9 L 1233.3 28.0 L 1199.3 27.3 L 1165.4 24.5 L 1131.8 19.7 L 1098.5 12.8 L 1065.6 4.0 L 1033.3 -6.6 L 1001.6 -18.9 L 970.1 -14.3 L 937.9 -3.1 L 905.3 6.4 L 872.2 14.3 L 838.8 20.5 L 805.1 24.9 L 771.2 27.4 L 737.1 28.0 L 703.2 26.6 L 669.3 23.5 L 635.7 18.5 L 602.4 11.6 L 569.5 2.8 L 537.2 -7.9 L 505.6 -20.4 L 474.7 -34.7 L 444.6 -50.4 L 415.3 -67.7 L 387.0 -86.5 L 359.7 -106.8 L 333.4 -128.4 L 308.3 -151.3 L 284.3 -175.5 L 261.6 -200.8 L 240.2 -227.2 L 220.0 -254.6 L 201.3 -283.0 L 184.1 -312.3 L 168.3 -342.4 L 153.9 -373.2 L 141.1 -404.7 L 130.0 -436.9 L 120.6 -469.6 L 113.0 -502.7 L 107.2 -536.2 L 103.1 -570.0 L 100.7 -603.9 Z" transform="translate(1392.12,0)" fill="none" stroke="#1a1a2e" stroke-width="45.1" stroke-linecap="round" stroke-linejoin="round" stroke-dasharray="6773.9 6773.9" stroke-dashoffset="6773.9"><animate attributeName="stroke-dashoffset" from="6773.9" to="0" begin="0.917s" dur="0.161s" fill="freeze" calcMode="linear"/></path><path d="M 241.0 -633.3 L 241.1 -622.4 L 241.4 -611.5 L 241.9 -600.6 L 242.6 -589.7 L 243.5 -578.8 L 244.7 -568.0 L 246.0 -557.1 L 247.6 -546.4 L 249.4 -535.6 L 251.5 -524.9 L 253.7 -514.2 L 256.2 -503.6 L 258.9 -493.0 L 261.9 -482.5 L 265.0 -472.0 L 268.4 -461.7 L 272.1 -451.4 L 275.9 -441.2 L 280.0 -431.0 L 284.3 -421.0 L 288.8 -411.0 L 293.5 -401.2 L 298.4 -391.5 L 303.6 -381.8 L 308.9 -372.3 L 314.4 -362.9 L 320.1 -353.6 L 326.0 -344.4 L 332.1 -335.3 L 338.4 -326.4 L 344.8 -317.6 L 351.4 -308.9 L 358.2 -300.4 L 365.2 -292.0 L 372.4 -283.7 L 379.7 -275.6 L 387.2 -267.7 L 394.9 -260.0 L 402.7 -252.4 L 410.7 -244.9 L 418.8 -237.7 L 427.1 -230.6 L 435.6 -223.7 L 444.2 -216.9 L 452.9 -210.4 L 461.8 -204.0 L 470.7 -197.8 L 479.9 -191.8 L 489.1 -186.0 L 498.4 -180.3 L 507.9 -174.9 L 517.5 -169.7 L 527.2 -164.7 L 537.0 -159.9 L 546.9 -155.4 L 557.0 -151.1 L 567.1 -147.0 L 577.3 -143.2 L 587.6 -139.6 L 598.0 -136.2 L 608.5 -133.1 L 619.0 -130.2 L 629.6 -127.6 L 640.2 -125.2 L 650.9 -123.0 L 661.7 -121.1 L 672.4 -119.4 L 683.3 -118.0 L 694.1 -116.7 L 705.0 -115.7 L 715.9 -115.0 L 726.8 -114.4 L 737.7 -114.1 L 748.6 -114.0 L 759.5 -114.1 L 770.4 -114.5 L 781.3 -115.2 L 792.2 -116.1 L 803.0 -117.2 L 813.9 -118.6 L 824.7 -120.1 L 835.4 -121.9 L 828.3 -129.0 L 820.4 -136.4 L 812.5 -144.0 L 804.8 -151.7 L 797.2 -159.6 L 789.8 -167.6 L 782.5 -175.7 L 775.3 -183.9 L 768.3 -192.2 L 761.4 -200.7 L 754.6 -209.3 L 748.0 -218.0 L 741.6 -226.8 L 735.3 -235.7 L 729.2 -244.8 L 723.2 -253.9 L 717.4 -263.1 L 711.8 -272.5 L 706.3 -281.9 L 701.0 -291.4 L 695.8 -301.1 L 690.8 -310.8 L 686.0 -320.6 L 681.4 -330.5 L 677.1 -340.5 L 673.0 -350.6 L 669.2 -360.8 L 665.6 -371.1 L 662.2 -381.5 L 659.1 -392.0 L 656.1 -402.5 L 653.4 -413.0 L 650.9 -423.7 L 648.5 -434.3 L 646.4 -445.0 L 644.4 -455.8 L 642.6 -466.5 L 641.0 -477.3 L 639.5 -488.1 L 638.2 -499.0 L 637.0 -509.8 L 635.9 -520.7 L 635.0 -531.6 L 634.2 -542.4 L 633.6 -553.3 L 633.0 -564.2 L 632.6 -575.1 L 632.3 -586.1 L 632.1 -597.0 L 632.0 -607.9 L 631.9 -618.8 L 631.6 -629.7 L 630.8 -640.6 L 629.7 -651.5 L 628.3 -662.3 L 626.5 -673.1 L 624.5 -683.8 L 622.2 -694.4 L 619.6 -705.0 L 616.7 -715.6 L 613.6 -726.0 L 610.2 -736.4 L 606.6 -746.7 L 602.6 -756.9 L 598.4 -766.9 L 593.8 -776.8 L 588.8 -786.6 L 583.6 -796.1 L 577.9 -805.5 L 572.0 -814.6 L 565.7 -823.5 L 559.0 -832.2 L 552.0 -840.5 L 544.6 -848.6 L 536.8 -856.2 L 528.4 -863.1 L 519.5 -869.4 L 510.1 -874.9 L 500.2 -879.6 L 490.0 -883.5 L 479.5 -886.4 L 468.8 -888.4 L 457.9 -889.6 L 447.0 -890.0 L 436.1 -889.8 L 425.2 -889.1 L 414.3 -887.9 L 403.6 -886.3 L 392.9 -884.0 L 382.3 -881.2 L 372.0 -877.7 L 361.9 -873.6 L 352.1 -868.8 L 342.6 -863.4 L 333.5 -857.4 L 324.9 -850.7 L 316.7 -843.5 L 309.0 -835.7 L 301.9 -827.5 L 295.2 -818.8 L 289.0 -809.8 L 283.2 -800.6 L 277.8 -791.1 L 272.8 -781.4 L 268.2 -771.5 L 263.9 -761.5 L 260.0 -751.3 L 256.6 -740.9 L 253.4 -730.5 L 250.7 -719.9 L 248.3 -709.2 L 246.3 -698.5 L 244.7 -687.7 L 243.3 -676.9 L 242.3 -666.0 L 241.6 -655.1 L 241.1 -644.2 Z" transform="translate(1392.12,0)" fill="none" stroke="#1a1a2e" stroke-width="45.1" stroke-linecap="round" stroke-linejoin="round" stroke-dasharray="2181.9 2181.9" stroke-dashoffset="2181.9"><animate attributeName="stroke-dashoffset" from="2181.9" to="0" begin="1.199s" dur="0.080s" fill="freeze" calcMode="linear"/></path><path d="M 770.0 -571.0 L 770.1 -561.8 L 770.4 -552.6 L 770.9 -543.4 L 771.5 -534.3 L 772.4 -525.1 L 773.5 -516.0 L 774.7 -506.9 L 776.2 -497.8 L 777.9 -488.8 L 779.7 -479.8 L 781.8 -470.8 L 784.1 -461.9 L 786.6 -453.1 L 789.2 -444.3 L 792.1 -435.6 L 795.2 -426.9 L 798.4 -418.3 L 801.9 -409.8 L 805.5 -401.3 L 809.2 -393.0 L 813.1 -384.6 L 817.2 -376.4 L 821.3 -368.2 L 825.7 -360.1 L 830.1 -352.1 L 834.7 -344.1 L 839.5 -336.2 L 844.4 -328.5 L 849.4 -320.8 L 854.6 -313.2 L 860.0 -305.7 L 865.4 -298.3 L 871.0 -291.0 L 876.8 -283.9 L 882.7 -276.8 L 888.7 -269.9 L 894.8 -263.0 L 901.0 -256.3 L 907.4 -249.6 L 913.8 -243.1 L 920.4 -236.6 L 927.1 -230.3 L 933.8 -224.1 L 940.8 -218.1 L 947.8 -212.1 L 954.9 -206.4 L 962.2 -200.8 L 969.6 -195.3 L 977.1 -190.0 L 984.7 -184.9 L 992.5 -179.9 L 1000.4 -182.7 L 1008.3 -187.4 L 1016.1 -192.3 L 1023.7 -197.4 L 1031.3 -202.6 L 1038.8 -208.0 L 1046.1 -213.5 L 1053.4 -219.2 L 1060.5 -225.0 L 1067.5 -230.9 L 1074.4 -237.0 L 1081.2 -243.2 L 1087.9 -249.5 L 1094.4 -255.9 L 1100.9 -262.4 L 1107.2 -269.1 L 1113.5 -275.8 L 1119.6 -282.7 L 1125.6 -289.7 L 1131.5 -296.7 L 1137.3 -303.8 L 1142.9 -311.1 L 1148.5 -318.4 L 1154.0 -325.8 L 1159.3 -333.2 L 1164.6 -340.8 L 1169.8 -348.4 L 1174.8 -356.1 L 1179.6 -363.9 L 1184.2 -371.8 L 1188.7 -379.9 L 1193.0 -388.0 L 1197.1 -396.2 L 1201.0 -404.5 L 1204.7 -412.9 L 1208.3 -421.4 L 1211.7 -430.0 L 1214.8 -438.6 L 1217.8 -447.3 L 1220.6 -456.0 L 1223.3 -464.8 L 1225.7 -473.7 L 1228.0 -482.6 L 1230.0 -491.5 L 1231.9 -500.5 L 1233.7 -509.6 L 1235.2 -518.6 L 1236.6 -527.7 L 1237.8 -536.8 L 1238.9 -545.9 L 1239.8 -555.1 L 1240.5 -564.2 L 1241.1 -573.4 L 1241.5 -582.6 L 1241.8 -591.8 L 1242.0 -601.0 L 1242.0 -610.2 L 1241.8 -619.3 L 1241.3 -628.5 L 1240.7 -637.7 L 1239.8 -646.8 L 1238.7 -656.0 L 1237.3 -665.0 L 1235.7 -674.1 L 1233.9 -683.1 L 1231.9 -692.1 L 1229.6 -701.0 L 1227.1 -709.8 L 1224.4 -718.6 L 1221.4 -727.3 L 1218.2 -735.9 L 1214.8 -744.4 L 1211.2 -752.9 L 1207.3 -761.2 L 1203.1 -769.4 L 1198.7 -777.5 L 1194.1 -785.4 L 1189.1 -793.1 L 1183.9 -800.7 L 1178.5 -808.1 L 1172.8 -815.3 L 1166.8 -822.3 L 1160.6 -829.1 L 1154.1 -835.6 L 1147.4 -841.9 L 1140.5 -847.9 L 1133.2 -853.6 L 1125.8 -858.9 L 1118.0 -863.8 L 1110.0 -868.3 L 1101.7 -872.3 L 1093.3 -875.9 L 1084.6 -879.0 L 1075.8 -881.7 L 1066.9 -883.8 L 1057.8 -885.5 L 1048.7 -886.8 L 1039.6 -887.6 L 1030.4 -888.0 L 1021.2 -888.0 L 1012.0 -887.6 L 1002.9 -887.0 L 993.7 -886.1 L 984.6 -884.7 L 975.6 -883.1 L 966.6 -881.1 L 957.8 -878.7 L 949.0 -875.9 L 940.4 -872.7 L 931.9 -869.2 L 923.6 -865.3 L 915.4 -861.1 L 907.5 -856.5 L 899.7 -851.5 L 892.2 -846.3 L 884.9 -840.7 L 877.8 -834.9 L 870.9 -828.8 L 864.2 -822.5 L 857.7 -816.0 L 851.5 -809.2 L 845.5 -802.2 L 839.7 -795.1 L 834.2 -787.7 L 829.0 -780.2 L 823.9 -772.5 L 819.2 -764.7 L 814.6 -756.7 L 810.3 -748.6 L 806.2 -740.3 L 802.4 -732.0 L 798.7 -723.5 L 795.3 -715.0 L 792.2 -706.4 L 789.2 -697.7 L 786.4 -688.9 L 783.9 -680.1 L 781.6 -671.2 L 779.5 -662.2 L 777.7 -653.2 L 776.0 -644.2 L 774.6 -635.1 L 773.3 -626.0 L 772.3 -616.9 L 771.5 -607.7 L 770.8 -598.6 L 770.4 -589.4 L 770.1 -580.2 Z" transform="translate(1392.12,0)" fill="none" stroke="#1a1a2e" stroke-width="45.1" stroke-linecap="round" stroke-linejoin="round" stroke-dasharray="1837.2 1837.2" stroke-dashoffset="1837.2"><animate attributeName="stroke-dashoffset" from="1837.2" to="0" begin="1.399s" dur="0.080s" fill="freeze" calcMode="linear"/></path><path d="M 100.4 -467.7 L 106.2 -549.1 L 119.6 -629.6 L 142.0 -708.0 L 174.2 -783.0 L 214.2 -854.1 L 261.1 -920.9 L 314.1 -983.0 L 387.5 -1006.4 L 437.5 -947.7 L 405.4 -876.4 L 355.1 -812.3 L 313.4 -742.1 L 280.4 -667.5 L 256.8 -589.4 L 243.4 -508.9 L 240.1 -427.4 L 245.2 -346.0 L 259.2 -265.6 L 283.2 -187.6 L 318.1 -113.9 L 362.7 -45.6 L 416.3 15.8 L 477.9 69.4 L 545.6 114.8 L 617.9 152.7 L 693.6 183.1 L 771.8 206.6 L 851.6 223.8 L 932.4 235.4 L 1013.8 241.8 L 1095.4 243.3 L 1177.0 241.6 L 1258.6 239.9 L 1340.2 238.1 L 1421.8 236.4 L 1503.5 234.6 L 1585.1 232.9 L 1666.7 231.1 L 1748.3 229.4 L 1829.9 226.0 L 1911.1 217.7 L 1991.5 203.8 L 2070.5 183.5 L 2146.6 154.1 L 2216.6 112.3 L 2277.2 57.8 L 2324.0 -8.8 L 2352.7 -85.0 L 2365.9 -165.5 L 2367.3 -247.1 L 2357.3 -328.0 L 2333.1 -405.8 L 2294.2 -477.5 L 2242.5 -540.5 L 2233.0 -497.4 L 2234.2 -415.9 L 2224.4 -334.9 L 2203.1 -256.2 L 2170.2 -181.5 L 2124.8 -113.8 L 2067.1 -56.3 L 1998.0 -13.3 L 1920.0 10.0 L 1838.6 14.6 L 1758.3 1.0 L 1684.9 -33.9 L 1623.7 -87.6 L 1578.4 -155.2 L 1549.9 -231.6 L 1538.4 -312.3 L 1541.9 -393.7 L 1560.2 -473.2 L 1594.2 -547.2 L 1641.7 -613.5 L 1699.8 -670.7 L 1766.9 -717.0 L 1840.5 -752.1 L 1918.9 -774.6 L 1914.3 -809.8 L 1842.8 -848.9 L 1764.6 -871.9 L 1683.4 -877.8 L 1602.7 -866.1 L 1527.2 -835.6 L 1461.6 -787.4 L 1410.5 -724.1 L 1377.0 -649.9 L 1362.9 -569.7 L 1363.5 -488.1 L 1366.9 -406.5 L 1363.7 -325.0 L 1348.7 -244.8 L 1319.3 -168.8 L 1274.9 -100.5 L 1216.1 -44.1 L 1144.9 -4.8 L 1066.1 16.0 L 984.7 20.9 L 903.8 10.7 L 827.0 -16.3 L 757.5 -58.9 L 696.9 -113.5 L 646.8 -177.8 L 607.8 -249.4 L 580.7 -326.3 L 566.0 -406.6 L 563.3 -488.1 L 570.8 -569.3 L 588.7 -648.9 L 617.5 -725.3 L 655.1 -797.6 L 701.6 -864.7 L 755.9 -925.6 L 817.0 -979.7 L 889.9 -1010.9 L 948.3 -961.4 L 928.3 -887.5 L 864.5 -836.7 L 809.5 -776.5 L 763.2 -709.3 L 728.9 -635.4 L 709.1 -556.3 L 703.0 -475.0 L 710.1 -393.8 L 732.1 -315.3 L 769.9 -243.1 L 824.2 -182.5 L 893.3 -139.7 L 972.4 -121.1 L 1053.7 -124.9 L 1128.7 -155.8 L 1183.3 -215.6 L 1215.0 -290.5 L 1226.6 -371.2 L 1224.4 -452.7 L 1221.0 -534.3 L 1227.0 -615.6 L 1245.4 -695.1 L 1277.1 -770.2 L 1321.2 -838.8 L 1376.5 -898.7 L 1441.5 -947.9 L 1514.0 -985.1 L 1592.1 -1008.5 L 1673.1 -1018.4 L 1754.6 -1016.5 L 1835.0 -1003.0 L 1912.0 -976.1 L 1982.6 -935.3 L 2046.4 -884.5 L 2102.9 -825.6 L 2150.0 -759.0 L 2224.7 -726.4 L 2293.0 -681.8 L 2353.5 -627.2 L 2404.8 -563.8 L 2446.2 -493.5 L 2477.5 -418.2 L 2497.5 -339.1 L 2506.9 -258.1 L 2507.0 -176.5 L 2498.6 -95.3 L 2479.6 -16.0 L 2448.3 59.3 L 2403.5 127.4 L 2347.8 186.9 L 2283.5 237.1 L 2212.5 277.3 L 2136.9 308.0 L 2058.7 331.2 L 1978.9 348.5 L 1898.1 360.3 L 1816.8 367.1 L 1735.2 369.7 L 1653.6 371.4 L 1572.0 373.1 L 1490.3 374.8 L 1408.7 376.6 L 1327.1 378.3 L 1245.5 380.0 L 1163.9 381.7 L 1082.2 382.9 L 1000.7 379.9 L 919.4 372.6 L 838.6 360.7 L 758.7 343.9 L 680.1 322.1 L 603.2 294.6 L 528.8 261.1 L 457.5 221.3 L 390.2 175.3 L 327.8 122.6 L 271.7 63.4 L 222.7 -1.8 L 181.3 -72.1 L 148.2 -146.7 L 124.2 -224.7 L 108.9 -304.8 L 101.2 -386.1 Z" transform="translate(3184.24,0)" fill="none" stroke="#1a1a2e" stroke-width="45.1" stroke-linecap="round" stroke-linejoin="round" stroke-dasharray="16201.3 16201.3" stroke-dashoffset="16201.3"><animate attributeName="stroke-dashoffset" from="16201.3" to="0" begin="1.599s" dur="0.386s" fill="freeze" calcMode="linear"/></path><path d="M 1678.0 -330.3 L 1678.1 -322.9 L 1678.4 -315.4 L 1678.9 -307.9 L 1679.7 -300.5 L 1680.7 -293.1 L 1681.9 -285.8 L 1683.4 -278.5 L 1685.1 -271.2 L 1687.1 -264.0 L 1689.4 -256.9 L 1691.9 -249.9 L 1694.6 -242.9 L 1697.6 -236.1 L 1700.8 -229.3 L 1704.3 -222.7 L 1707.9 -216.2 L 1711.8 -209.8 L 1715.9 -203.6 L 1720.2 -197.5 L 1724.6 -191.5 L 1729.3 -185.7 L 1734.2 -180.0 L 1739.2 -174.5 L 1744.5 -169.3 L 1750.1 -164.3 L 1755.8 -159.5 L 1761.8 -155.0 L 1768.0 -150.8 L 1774.3 -147.0 L 1780.9 -143.4 L 1787.6 -140.2 L 1794.5 -137.4 L 1801.6 -134.8 L 1808.7 -132.7 L 1816.0 -130.9 L 1823.3 -129.5 L 1830.7 -128.4 L 1838.1 -127.6 L 1845.5 -127.1 L 1853.0 -127.0 L 1860.5 -127.1 L 1867.9 -127.4 L 1875.4 -128.0 L 1882.8 -128.8 L 1890.2 -129.9 L 1897.5 -131.2 L 1904.8 -132.8 L 1912.0 -134.6 L 1919.2 -136.8 L 1926.2 -139.2 L 1933.2 -141.9 L 1940.0 -144.9 L 1946.7 -148.2 L 1953.3 -151.7 L 1959.7 -155.6 L 1966.0 -159.7 L 1972.0 -164.0 L 1977.9 -168.6 L 1983.6 -173.4 L 1989.1 -178.4 L 1994.5 -183.6 L 1999.7 -188.9 L 2004.8 -194.4 L 2009.8 -200.0 L 2014.6 -205.7 L 2019.2 -211.5 L 2023.7 -217.5 L 2028.0 -223.6 L 2032.2 -229.7 L 2036.3 -236.0 L 2040.1 -242.4 L 2043.9 -248.9 L 2047.4 -255.4 L 2050.8 -262.1 L 2054.1 -268.8 L 2057.2 -275.6 L 2060.2 -282.4 L 2063.0 -289.3 L 2065.6 -296.3 L 2068.2 -303.3 L 2070.6 -310.4 L 2072.9 -317.5 L 2075.1 -324.6 L 2077.2 -331.8 L 2079.2 -339.0 L 2081.0 -346.2 L 2082.7 -353.5 L 2084.3 -360.8 L 2085.8 -368.1 L 2087.2 -375.4 L 2088.4 -382.8 L 2089.5 -390.2 L 2090.5 -397.6 L 2091.4 -405.0 L 2092.2 -412.4 L 2092.8 -419.8 L 2093.3 -427.3 L 2093.6 -434.7 L 2093.9 -442.2 L 2094.0 -449.7 L 2094.0 -457.1 L 2093.9 -464.6 L 2093.6 -472.0 L 2093.2 -479.5 L 2092.8 -486.9 L 2092.2 -494.4 L 2091.4 -501.8 L 2090.6 -509.2 L 2089.6 -516.6 L 2088.6 -524.0 L 2087.4 -531.4 L 2086.1 -538.7 L 2084.7 -546.1 L 2083.2 -553.4 L 2081.5 -560.7 L 2079.7 -567.9 L 2077.8 -575.1 L 2075.8 -582.3 L 2073.7 -589.4 L 2071.4 -596.6 L 2069.0 -603.6 L 2066.5 -610.7 L 2063.9 -617.6 L 2061.1 -624.6 L 2058.3 -631.5 L 2055.3 -638.3 L 2048.3 -640.0 L 2040.9 -641.0 L 2033.5 -641.7 L 2026.1 -642.3 L 2018.6 -642.7 L 2011.2 -642.9 L 2003.7 -643.0 L 1996.2 -643.0 L 1988.8 -642.7 L 1981.3 -642.4 L 1973.9 -641.8 L 1966.4 -641.1 L 1959.0 -640.2 L 1951.6 -639.1 L 1944.3 -637.9 L 1937.0 -636.5 L 1929.7 -634.9 L 1922.4 -633.1 L 1915.2 -631.1 L 1908.1 -629.0 L 1901.0 -626.7 L 1893.9 -624.2 L 1886.9 -621.6 L 1880.0 -618.8 L 1873.2 -615.9 L 1866.4 -612.7 L 1859.7 -609.5 L 1853.0 -606.0 L 1846.5 -602.5 L 1840.0 -598.8 L 1833.6 -594.9 L 1827.3 -590.9 L 1821.1 -586.8 L 1814.9 -582.6 L 1808.8 -578.3 L 1802.9 -573.8 L 1797.0 -569.2 L 1791.3 -564.4 L 1785.6 -559.5 L 1780.1 -554.5 L 1774.6 -549.4 L 1769.3 -544.2 L 1764.1 -538.9 L 1759.0 -533.4 L 1754.0 -527.8 L 1749.2 -522.1 L 1744.5 -516.3 L 1739.9 -510.5 L 1735.4 -504.5 L 1731.1 -498.4 L 1726.9 -492.2 L 1722.8 -486.0 L 1718.9 -479.6 L 1715.2 -473.2 L 1711.6 -466.6 L 1708.1 -460.0 L 1704.9 -453.3 L 1701.8 -446.5 L 1698.9 -439.6 L 1696.2 -432.7 L 1693.7 -425.6 L 1691.3 -418.5 L 1689.2 -411.4 L 1687.2 -404.2 L 1685.5 -396.9 L 1683.9 -389.6 L 1682.5 -382.3 L 1681.3 -374.9 L 1680.3 -367.5 L 1679.5 -360.1 L 1678.9 -352.7 L 1678.4 -345.2 L 1678.1 -337.8 Z" transform="translate(3184.24,0)" fill="none" stroke="#1a1a2e" stroke-width="45.1" stroke-linecap="round" stroke-linejoin="round" stroke-dasharray="1492.4 1492.4" stroke-dashoffset="1492.4"><animate attributeName="stroke-dashoffset" from="1492.4" to="0" begin="2.104s" dur="0.080s" fill="freeze" calcMode="linear"/></path><path d="M -379.8 -1210.1 L -378.1 -1231.2 L -374.4 -1251.9 L -368.5 -1272.2 L -360.3 -1291.7 L -349.7 -1310.0 L -337.0 -1326.8 L -322.7 -1342.3 L -307.0 -1356.5 L -290.1 -1369.1 L -272.1 -1380.2 L -253.2 -1389.7 L -233.7 -1397.8 L -213.8 -1404.7 L -193.4 -1410.3 L -172.7 -1414.7 L -151.9 -1417.9 L -130.8 -1420.0 L -109.7 -1420.9 L -88.6 -1420.9 L -67.5 -1420.2 L -46.4 -1418.7 L -25.4 -1416.6 L -4.5 -1413.6 L 16.3 -1409.8 L 36.9 -1405.0 L 57.2 -1399.2 L 77.2 -1392.3 L 96.7 -1384.3 L 115.7 -1375.1 L 134.1 -1364.7 L 151.8 -1353.1 L 168.5 -1340.3 L 184.4 -1326.3 L 199.1 -1311.2 L 212.8 -1295.1 L 225.4 -1278.2 L 236.9 -1260.4 L 247.2 -1242.0 L 256.4 -1223.0 L 264.5 -1203.4 L 271.5 -1183.5 L 277.6 -1163.3 L 282.7 -1142.8 L 286.9 -1122.1 L 290.4 -1101.3 L 293.0 -1080.3 L 294.9 -1059.3 L 296.2 -1038.2 L 296.9 -1017.1 L 297.0 -995.9 L 296.9 -974.8 L 296.8 -953.7 L 296.8 -932.5 L 296.7 -911.4 L 296.6 -890.3 L 296.6 -869.2 L 296.5 -848.0 L 296.4 -826.9 L 296.4 -805.8 L 296.3 -784.7 L 296.3 -763.5 L 296.2 -742.4 L 296.1 -721.3 L 296.1 -700.2 L 296.0 -679.0 L 295.9 -657.9 L 295.9 -636.8 L 295.8 -615.6 L 295.7 -594.5 L 295.7 -573.4 L 295.6 -552.3 L 295.5 -531.1 L 295.5 -510.0 L 295.4 -488.9 L 295.3 -467.8 L 295.3 -446.6 L 295.2 -425.5 L 295.1 -404.4 L 295.1 -383.3 L 295.0 -362.1 L 294.9 -341.0 L 294.9 -319.9 L 294.8 -298.7 L 294.7 -277.6 L 294.7 -256.5 L 294.6 -235.4 L 294.5 -214.2 L 294.5 -193.1 L 294.4 -172.0 L 294.3 -150.9 L 294.3 -129.7 L 294.2 -108.6 L 294.1 -87.5 L 294.1 -66.3 L 294.0 -45.2 L 292.0 -24.2 L 284.0 -4.8 L 269.2 10.1 L 250.7 20.1 L 230.1 24.8 L 209.1 23.5 L 189.3 16.3 L 172.1 4.1 L 160.0 -13.0 L 154.6 -33.3 L 154.0 -54.4 L 154.1 -75.6 L 154.2 -96.7 L 154.2 -117.8 L 154.3 -138.9 L 154.4 -160.1 L 154.4 -181.2 L 154.5 -202.3 L 154.6 -223.5 L 154.6 -244.6 L 154.7 -265.7 L 154.8 -286.8 L 154.8 -308.0 L 154.9 -329.1 L 155.0 -350.2 L 155.0 -371.3 L 155.1 -392.5 L 155.2 -413.6 L 155.2 -434.7 L 155.3 -455.9 L 155.4 -477.0 L 155.4 -498.1 L 155.5 -519.2 L 155.6 -540.4 L 155.6 -561.5 L 155.7 -582.6 L 155.8 -603.7 L 155.8 -624.9 L 155.9 -646.0 L 155.9 -667.1 L 156.0 -688.2 L 156.1 -709.4 L 156.1 -730.5 L 156.2 -751.6 L 156.3 -772.8 L 156.3 -793.9 L 156.4 -815.0 L 156.5 -836.1 L 156.5 -857.3 L 156.6 -878.4 L 156.7 -899.5 L 156.7 -920.6 L 156.8 -941.8 L 156.9 -962.9 L 156.9 -984.0 L 157.0 -1005.2 L 156.6 -1026.3 L 155.6 -1047.4 L 153.9 -1068.4 L 151.4 -1089.4 L 148.0 -1110.3 L 143.7 -1130.9 L 138.3 -1151.4 L 131.7 -1171.4 L 123.8 -1191.0 L 114.2 -1209.8 L 102.0 -1227.0 L 87.0 -1241.9 L 69.7 -1254.0 L 50.6 -1262.9 L 30.3 -1268.8 L 9.5 -1272.0 L -5.1 -1268.8 L 2.2 -1249.0 L 5.3 -1228.1 L 6.0 -1207.0 L 5.0 -1185.9 L 1.8 -1165.0 L -3.6 -1144.6 L -11.5 -1125.0 L -21.5 -1106.5 L -33.7 -1089.2 L -47.6 -1073.3 L -63.1 -1058.9 L -79.8 -1046.1 L -97.9 -1035.1 L -117.0 -1026.2 L -137.0 -1019.4 L -157.6 -1014.9 L -178.6 -1012.5 L -199.7 -1012.1 L -220.8 -1014.1 L -241.4 -1018.7 L -261.2 -1026.0 L -280.0 -1035.6 L -297.6 -1047.3 L -314.0 -1060.6 L -329.0 -1075.4 L -342.4 -1091.7 L -354.2 -1109.3 L -364.1 -1127.9 L -371.8 -1147.6 L -377.0 -1168.0 L -379.7 -1189.0 Z" transform="translate(5792.24,0)" fill="none" stroke="#1a1a2e" stroke-width="45.1" stroke-linecap="round" stroke-linejoin="round" stroke-dasharray="4217.6 4217.6" stroke-dashoffset="4217.6"><animate attributeName="stroke-dashoffset" from="4217.6" to="0" begin="2.304s" dur="0.100s" fill="freeze" calcMode="linear"/></path><path d="M -278.0 -1200.4 L -277.9 -1197.4 L -277.8 -1194.5 L -277.6 -1191.5 L -277.3 -1188.6 L -276.8 -1185.7 L -276.3 -1182.8 L -275.7 -1179.9 L -275.0 -1177.1 L -274.2 -1174.2 L -273.3 -1171.4 L -272.3 -1168.7 L -271.2 -1166.0 L -270.0 -1163.3 L -268.7 -1160.6 L -267.3 -1158.1 L -265.8 -1155.5 L -264.2 -1153.1 L -262.5 -1150.6 L -260.7 -1148.3 L -258.9 -1146.0 L -257.0 -1143.8 L -255.0 -1141.6 L -252.9 -1139.5 L -250.8 -1137.5 L -248.6 -1135.6 L -246.3 -1133.7 L -244.0 -1131.8 L -241.7 -1130.0 L -239.3 -1128.3 L -236.9 -1126.6 L -234.5 -1125.0 L -232.0 -1123.4 L -229.4 -1121.9 L -226.8 -1120.5 L -224.2 -1119.2 L -221.6 -1117.9 L -218.9 -1116.8 L -216.1 -1115.7 L -213.3 -1114.7 L -210.5 -1113.8 L -207.7 -1113.0 L -204.9 -1112.3 L -202.0 -1111.6 L -199.1 -1111.1 L -196.2 -1110.7 L -193.3 -1110.4 L -190.3 -1110.2 L -187.4 -1110.0 L -184.5 -1110.0 L -181.5 -1110.1 L -178.6 -1110.2 L -175.6 -1110.5 L -172.7 -1110.9 L -169.8 -1111.3 L -166.9 -1111.9 L -164.1 -1112.6 L -161.2 -1113.4 L -158.4 -1114.2 L -155.6 -1115.2 L -152.9 -1116.3 L -150.2 -1117.4 L -147.5 -1118.7 L -144.9 -1120.0 L -142.3 -1121.4 L -139.8 -1122.9 L -137.3 -1124.4 L -134.8 -1126.1 L -132.4 -1127.8 L -130.1 -1129.5 L -127.8 -1131.3 L -125.5 -1133.2 L -123.3 -1135.1 L -121.1 -1137.1 L -119.0 -1139.2 L -117.0 -1141.4 L -115.1 -1143.6 L -113.2 -1145.9 L -111.5 -1148.2 L -109.8 -1150.6 L -108.2 -1153.1 L -106.8 -1155.7 L -105.4 -1158.3 L -104.1 -1160.9 L -102.9 -1163.6 L -101.8 -1166.3 L -100.8 -1169.1 L -100.0 -1171.9 L -99.2 -1174.7 L -98.5 -1177.6 L -97.9 -1180.5 L -97.4 -1183.4 L -96.9 -1186.3 L -96.6 -1189.2 L -96.3 -1192.1 L -96.1 -1195.1 L -96.0 -1198.0 L -96.0 -1201.0 L -96.0 -1203.9 L -96.1 -1206.8 L -96.2 -1209.8 L -96.4 -1212.7 L -96.7 -1215.6 L -97.0 -1218.6 L -97.4 -1221.5 L -97.8 -1224.4 L -98.3 -1227.3 L -98.9 -1230.2 L -99.6 -1233.0 L -100.3 -1235.9 L -101.1 -1238.7 L -102.0 -1241.5 L -103.0 -1244.3 L -104.1 -1247.0 L -105.2 -1249.7 L -106.5 -1252.4 L -107.8 -1255.0 L -109.2 -1257.6 L -110.7 -1260.1 L -112.3 -1262.6 L -114.0 -1265.0 L -115.8 -1267.4 L -117.6 -1269.7 L -119.5 -1271.9 L -121.5 -1274.1 L -123.6 -1276.1 L -125.7 -1278.2 L -127.9 -1280.1 L -130.2 -1282.0 L -132.5 -1283.8 L -134.9 -1285.5 L -137.4 -1287.1 L -139.9 -1288.6 L -142.5 -1290.1 L -145.1 -1291.4 L -147.8 -1292.6 L -150.5 -1293.8 L -153.2 -1294.8 L -156.0 -1295.8 L -158.8 -1296.6 L -161.7 -1297.3 L -164.5 -1298.0 L -167.4 -1298.5 L -170.3 -1299.0 L -173.3 -1299.4 L -176.2 -1299.6 L -179.1 -1299.8 L -182.1 -1300.0 L -185.0 -1300.0 L -187.9 -1300.0 L -190.9 -1299.8 L -193.8 -1299.6 L -196.7 -1299.3 L -199.7 -1299.0 L -202.6 -1298.5 L -205.4 -1297.9 L -208.3 -1297.3 L -211.2 -1296.5 L -214.0 -1295.7 L -216.8 -1294.7 L -219.5 -1293.7 L -222.2 -1292.6 L -224.9 -1291.4 L -227.6 -1290.1 L -230.2 -1288.7 L -232.7 -1287.2 L -235.2 -1285.7 L -237.7 -1284.0 L -240.0 -1282.3 L -242.4 -1280.6 L -244.7 -1278.7 L -246.9 -1276.8 L -249.1 -1274.8 L -251.2 -1272.8 L -253.3 -1270.7 L -255.3 -1268.5 L -257.2 -1266.3 L -259.0 -1264.0 L -260.8 -1261.6 L -262.4 -1259.2 L -264.0 -1256.7 L -265.5 -1254.2 L -266.9 -1251.6 L -268.2 -1249.0 L -269.4 -1246.3 L -270.6 -1243.6 L -271.6 -1240.8 L -272.6 -1238.0 L -273.4 -1235.2 L -274.2 -1232.4 L -274.9 -1229.5 L -275.6 -1226.7 L -276.1 -1223.8 L -276.6 -1220.9 L -277.0 -1218.0 L -277.3 -1215.0 L -277.6 -1212.1 L -277.8 -1209.2 L -277.9 -1206.2 L -278.0 -1203.3 Z" transform="translate(5792.24,0)" fill="none" stroke="#1a1a2e" stroke-width="45.1" stroke-linecap="round" stroke-linejoin="round" stroke-dasharray="588.4 588.4" stroke-dashoffset="588.4"><animate attributeName="stroke-dashoffset" from="588.4" to="0" begin="2.525s" dur="0.080s" fill="freeze" calcMode="linear"/></path>
</svg>